<svg width="80" height="80" viewBox="0 0 80 80" fill="none" xmlns="http://www.w3.org/2000/svg">
<path d="M12.9163 78.461V1.33358H54.7513L66.8778 14.6727V78.461H12.9163Z" stroke="#FD3034" stroke-width="2.66667"/>
<path d="M68.2111 14.1573H55.3411V0.000244141H52.7671V16.7313H68.2111V14.1573Z" fill="#333333"/>
<path fill-rule="evenodd" clip-rule="evenodd" d="M70.7851 27.0273H73.3591C76.9072 27.0273 79.7943 29.914 79.7943 33.4624C79.7943 37.0108 76.9075 39.8976 73.3591 39.8976H70.7851H29.211L19.5586 33.4624L29.211 27.0273H70.7851ZM28.314 36.2049V30.7184L24.1994 33.4624L28.314 36.2049ZM70.7851 37.3232H30.8881V34.7492H66.924V32.1751H30.8881V29.6011H70.7851V37.3232ZM73.3591 29.6013V37.3232C75.4878 37.3232 77.2202 35.5911 77.2202 33.4624C77.2202 31.3338 75.4878 29.6013 73.3591 29.6013Z" fill="#333333"/>
<path fill-rule="evenodd" clip-rule="evenodd" d="M61.7759 66.9243H0V48.9062H61.7759V66.9243ZM5.14811 51.4802H2.57405V64.3505H59.203V57.9154V51.4802H48.907V57.9154H46.333V51.4802H43.7589V55.3413H41.1849V51.4802H38.6108V55.3413H36.0368V51.4802H33.4627V57.9154H30.8886V51.4802H28.3146V55.3413H25.7405V51.4802H23.1665V55.3413H20.5924V51.4802H18.0184V57.9154H15.4443V51.4802H12.8703V55.3413H10.2962V51.4802H7.72216V55.3413H5.14811V51.4802Z" fill="#333333"/>
<path fill-rule="evenodd" clip-rule="evenodd" d="M51.48 57.9154C51.48 55.7868 53.2124 54.0543 55.3411 54.0543C57.4697 54.0543 59.2021 55.7868 59.2021 57.9154C59.2021 60.0441 57.4697 61.7765 55.3411 61.7765C53.2124 61.7765 51.48 60.0441 51.48 57.9154ZM54.054 57.9154C54.054 58.6259 54.6319 59.2024 55.3411 59.2024C56.0503 59.2024 56.6281 58.6257 56.6281 57.9154C56.6281 57.2049 56.0503 56.6284 55.3411 56.6284C54.6319 56.6284 54.054 57.2049 54.054 57.9154Z" fill="#333333"/>
<rect x="18.0181" y="6.43542" width="30.8881" height="2.57405" fill="#333333"/>
<rect x="18.0181" y="12.8703" width="30.8881" height="2.57405" fill="#333333"/>
<rect x="18.0181" y="19.3054" width="30.8881" height="2.57405" fill="#333333"/>
</svg>
