<svg width="39" height="39" viewBox="0 0 39 39" fill="none" xmlns="http://www.w3.org/2000/svg">
<path fill-rule="evenodd" clip-rule="evenodd" d="M19.4714 0C8.7349 0 0 8.7349 0 19.4714C0 30.2071 8.7349 38.9427 19.4714 38.9427C30.2071 38.9427 38.9427 30.2071 38.9427 19.4714C38.9427 8.7349 30.2086 0 19.4714 0ZM21.6983 18.0098C22.5349 15.1326 24.5944 13.3827 27.2511 13.3827C30.3866 13.3827 32.9388 15.9701 32.9412 19.142C32.9412 22.3198 30.3889 24.9238 27.2534 24.9238C25.7866 24.9238 24.5075 24.4712 23.3951 23.7489L22.1266 29.8039H19.1988L20.9508 21.4561C20.1235 20.4012 19.4429 19.2156 18.8866 18.0407V19.3059C18.8866 22.3946 16.4059 24.9297 13.3596 24.9297C10.3133 24.9297 7.83264 22.3946 7.8432 19.3059V11.7647H10.7029V19.3059C10.7029 20.792 11.8975 22.0038 13.3643 22.0038C14.8312 22.0038 16.0269 20.792 16.0269 19.3059V11.7647H18.8855C19.4522 13.7308 20.4192 16.0651 21.6983 18.0098ZM24.0323 20.7136C25.0156 21.5203 26.0964 22.0156 27.2511 22.0156C28.8059 22.0156 30.0744 20.7291 30.0791 19.1538C30.0791 17.5738 28.8106 16.2873 27.2511 16.2873C25.1717 16.2873 24.4958 18.3223 24.2822 19.534L24.2717 19.5756L24.0323 20.7136Z" fill="#FA333C"/>
</svg>
