<svg width="89" height="100" viewBox="0 0 89 100" fill="none" xmlns="http://www.w3.org/2000/svg">
<path d="M60.7119 8.6588L47.4184 3.78517C44.1852 2.65587 40.6256 3.00021 37.6682 4.72247L29.577 9.44357C26.1336 11.4529 21.9016 11.5664 18.3545 9.74786L9.61095 5.26993C8.25021 4.57521 6.63322 4.63595 5.33536 5.43126C4.03204 6.22345 3.24103 7.6379 3.24103 9.16075V41.5365C3.24103 43.1772 4.16368 44.6807 5.62091 45.4283L18.3543 51.9496C21.9014 53.768 26.1334 53.6537 29.5768 51.6443L37.668 46.9242C40.6242 45.2022 44.1854 44.8588 47.4182 45.9859C47.4182 45.9859 58.1791 49.3383 60.7117 49.1672V8.6588H60.7119Z" fill="#FF787E"/>
<path fill-rule="evenodd" clip-rule="evenodd" d="M16.9258 54.7361C19.0082 55.8037 21.3457 56.368 23.6863 56.368C26.3084 56.368 28.8908 55.6697 31.1547 54.3486L39.2439 49.6297C41.3863 48.3814 44.0445 48.125 46.3877 48.9422C46.4209 48.9535 46.4541 48.9645 46.4873 48.9748C48.9941 49.7561 57.4144 52.3043 60.5078 52.3043H60.5084C60.6566 52.3043 60.7947 52.2996 60.9228 52.2908C62.5662 52.1801 63.8428 50.8145 63.8428 49.1672V8.65879C63.8428 7.34531 63.0227 6.17129 61.7894 5.71914L48.4959 0.845508C48.4809 0.840039 48.4656 0.83457 48.4506 0.829297C46.8746 0.278906 45.2297 0 43.5611 0C40.941 0 38.3584 0.697656 36.0902 2.01855L27.9986 6.74004C26.6928 7.50215 25.2021 7.90508 23.6881 7.90508C22.3365 7.90508 20.9857 7.5791 19.7816 6.96172L11.0348 2.48164C9.97929 1.94277 8.79648 1.65781 7.61425 1.65781C6.23163 1.65781 4.87773 2.03945 3.70898 2.75586C1.48906 4.10527 0.109955 6.55957 0.109955 9.16074V41.5365C0.109955 44.3637 1.67382 46.9223 4.19335 48.215L16.9258 54.7361ZM6.97128 8.10098C7.16445 7.98242 7.38671 7.91973 7.61406 7.91973C7.81113 7.91973 8.00956 7.96758 8.18359 8.05645L16.9256 12.5342C19.009 13.6021 21.3475 14.1664 23.6881 14.1664C26.3098 14.1664 28.8916 13.4682 31.1543 12.1479L39.2428 7.42832C41.3811 6.18301 44.0279 5.92422 46.3643 6.73379L57.5805 10.8457V45.5404C55.0434 44.9604 51.4539 43.9625 48.3959 43.0113C46.8367 42.4744 45.2109 42.202 43.5621 42.202C40.9406 42.202 38.3572 42.8994 36.0898 44.2201L27.9982 48.9402C26.6914 49.7025 25.2002 50.1059 23.6861 50.1059C22.3346 50.1059 20.9848 49.7803 19.7812 49.1631L7.0498 42.6426C6.63788 42.4312 6.37167 41.9971 6.37167 41.5365V9.16074C6.37167 8.73184 6.59785 8.32793 6.97128 8.10098Z" fill="#FA333C"/>
<path d="M70.5633 69.0039C68.834 69.0039 67.4324 67.6022 67.4324 65.8731V8.60822C67.4324 6.87892 68.8342 5.47736 70.5633 5.47736C72.2924 5.47736 73.6942 6.87911 73.6942 8.60822V65.8735C73.6942 67.6024 72.2924 69.0039 70.5633 69.0039Z" fill="#FA333C"/>
<path d="M70.5633 99.7658C68.834 99.7658 67.4324 98.3641 67.4324 96.635V80.9012C67.4324 79.1721 68.8342 77.7703 70.5633 77.7703C72.2924 77.7703 73.6942 79.1721 73.6942 80.9012V96.635C73.6942 98.3641 72.2924 99.7658 70.5633 99.7658Z" fill="#FA333C"/>
<path d="M60.7469 99.7658C59.0178 99.7658 57.616 98.3641 57.616 96.6349V8.69647C57.616 6.96718 59.0178 5.56561 60.7469 5.56561C62.4762 5.56561 63.8777 6.96737 63.8777 8.69647V96.6349C63.8777 98.3641 62.4758 99.7658 60.7469 99.7658Z" fill="#FA333C"/>
<path d="M85.4311 100H45.1465C43.4174 100 42.0156 98.5982 42.0156 96.8691C42.0156 95.14 43.4174 93.7383 45.1465 93.7383H85.4311C87.1604 93.7383 88.5619 95.14 88.5619 96.8691C88.5619 98.5982 87.1602 100 85.4311 100Z" fill="#FA333C"/>
<path d="M44.3359 30.6924C42.6066 30.6924 41.2051 29.2906 41.2051 27.5615V3.87128C41.2051 2.14198 42.6068 0.740417 44.3359 0.740417C46.0652 0.740417 47.4668 2.14218 47.4668 3.87128V27.5613C47.4668 29.2906 46.065 30.6924 44.3359 30.6924Z" fill="#FA333C"/>
</svg>
