<svg width="21" height="21" viewBox="0 0 21 21" fill="none" xmlns="http://www.w3.org/2000/svg">
<path fill-rule="evenodd" clip-rule="evenodd" d="M20.5792 9.93025C20.7867 10.0346 20.9596 10.2468 20.9596 10.4795C20.9596 10.7122 20.7867 10.9245 20.5792 11.0288L16.7655 12.9357L20.5792 14.8425C20.7867 14.9469 20.9596 15.1591 20.9596 15.3918C20.9596 15.6245 20.7867 15.8367 20.5792 15.9411L10.7547 20.8534L10.7284 20.8665C10.6036 20.929 10.5415 20.9602 10.4794 20.96C10.4179 20.9599 10.3565 20.9291 10.2342 20.8678L10.2342 20.8678L10.2054 20.8534L0.380822 15.9411C0.17336 15.8367 0.000488281 15.6245 0.000488281 15.3918C0.000488281 15.1591 0.17336 14.9469 0.380822 14.8425L4.19455 12.9357L0.380822 11.0288C0.17336 10.9245 0.000488281 10.7122 0.000488281 10.4795C0.000488281 10.2468 0.17336 10.0346 0.380822 9.93025L4.19455 8.02338L0.380822 6.11652C0.17336 6.01217 0.000488281 5.79992 0.000488281 5.56724C0.000488281 5.33456 0.17336 5.12231 0.380822 5.01797L10.2054 0.06475C10.3781 -0.0215833 10.582 -0.0215833 10.7547 0.06475L20.5792 5.01797C20.7867 5.12231 20.9596 5.33456 20.9596 5.56724C20.9596 5.79992 20.7867 6.01217 20.5792 6.11652L16.7655 8.02338L20.5792 9.93025ZM10.48 1.3006L2.02865 5.56724L10.48 9.79295L18.9314 5.56724L10.48 1.3006ZM18.9314 15.3918L10.48 19.6175L2.02865 15.3918L5.56774 13.6222L10.2054 15.9411C10.3779 16.0273 10.582 16.0274 10.7547 15.9411L15.3923 13.6222L18.9314 15.3918ZM2.02865 10.4795L10.48 14.7052L18.9314 10.4795L15.3923 8.70995L10.7547 11.0288C10.582 11.1151 10.3779 11.115 10.2054 11.0288L5.56774 8.70995L2.02865 10.4795Z" fill="url(#paint0_linear)"/>
<defs>
<linearGradient id="paint0_linear" x1="20.9416" y1="20.9241" x2="20.9416" y2="-9.97738e-06" gradientUnits="userSpaceOnUse">
<stop stop-color="#F11F23"/>
<stop offset="1" stop-color="#FF8183"/>
</linearGradient>
</defs>
</svg>
