<svg width="21" height="21" viewBox="0 0 21 21" fill="none" xmlns="http://www.w3.org/2000/svg">
<path fill-rule="evenodd" clip-rule="evenodd" d="M20.3848 0H0.615234C0.275174 0 0 0.275174 0 0.615234V16.6934C0 17.0334 0.275174 17.3086 0.615234 17.3086H8.41554L7.59527 19.7695H6.80859C6.46853 19.7695 6.19336 20.0447 6.19336 20.3848C6.19336 20.7248 6.46853 21 6.80859 21H14.1914C14.5315 21 14.8066 20.7248 14.8066 20.3848C14.8066 20.0447 14.5315 19.7695 14.1914 19.7695H13.4047L12.5845 17.3086H20.3848C20.7248 17.3086 21 17.0334 21 16.6934V0.615234C21 0.275174 20.7248 0 20.3848 0ZM8.89305 19.7695L9.71332 17.3086H11.2867L12.107 19.7695H8.89305ZM1.23047 16.0781H19.7695V1.23047H1.23047V16.0781ZM4.34766 6.19336H6.30669C6.56152 6.90793 7.23803 7.42383 8.03906 7.42383C8.8401 7.42383 9.51661 6.90793 9.77144 6.19336H16.6523C16.9924 6.19336 17.2676 5.91819 17.2676 5.57812C17.2676 5.23806 16.9924 4.96289 16.6523 4.96289H9.77144C9.51661 4.24832 8.8401 3.73242 8.03906 3.73242C7.23803 3.73242 6.56152 4.24832 6.30669 4.96289H4.34766C4.0076 4.96289 3.73242 5.23806 3.73242 5.57812C3.73242 5.91819 4.0076 6.19336 4.34766 6.19336ZM8.6543 5.57812C8.6543 5.23868 8.37793 4.96289 8.03906 4.96289C7.70019 4.96289 7.42383 5.23868 7.42383 5.57812C7.42383 5.91757 7.70019 6.19336 8.03906 6.19336C8.37793 6.19336 8.6543 5.91757 8.6543 5.57812ZM4.34766 12.3457H11.2286C11.4834 13.0603 12.1599 13.5762 12.9609 13.5762C13.762 13.5762 14.4385 13.0603 14.6933 12.3457H16.6523C16.9924 12.3457 17.2676 12.0705 17.2676 11.7305C17.2676 11.3904 16.9924 11.1152 16.6523 11.1152H14.6933C14.4385 10.4007 13.762 9.88477 12.9609 9.88477C12.1599 9.88477 11.4834 10.4007 11.2286 11.1152H4.34766C4.0076 11.1152 3.73242 11.3904 3.73242 11.7305C3.73242 12.0705 4.0076 12.3457 4.34766 12.3457ZM13.5762 11.7305C13.5762 11.391 13.2998 11.1152 12.9609 11.1152C12.6221 11.1152 12.3457 11.391 12.3457 11.7305C12.3457 12.0699 12.6221 12.3457 12.9609 12.3457C13.2998 12.3457 13.5762 12.0699 13.5762 11.7305Z" fill="url(#paint0_linear)"/>
<defs>
<linearGradient id="paint0_linear" x1="20.982" y1="20.964" x2="20.982" y2="-9.99641e-06" gradientUnits="userSpaceOnUse">
<stop stop-color="#F11F23"/>
<stop offset="1" stop-color="#FF8183"/>
</linearGradient>
</defs>
</svg>
