<svg width="56" height="48" viewBox="0 0 56 48" fill="none" xmlns="http://www.w3.org/2000/svg">
<rect width="56" height="48" fill="white"/>
<path d="M27.3193 20.7067C25.6119 17.6718 23.7867 15.1993 23.6564 15.0222C20.9053 16.3222 18.8527 18.8563 18.2112 21.9118C18.4712 21.9163 22.5823 21.9652 27.3193 20.7067Z" fill="black"/>
<path d="M25.7337 14.5855C25.7171 14.5926 25.7005 14.5961 25.6839 14.5997C25.7135 14.5938 25.7313 14.589 25.7313 14.589L25.7337 14.5855Z" fill="black"/>
<path d="M34.3808 16.5414C32.6423 15.0111 30.3637 14.0807 27.8652 14.0807C27.0637 14.0807 26.286 14.1785 25.54 14.3585C25.6882 14.554 27.5408 17.0155 29.2282 20.1148C32.9511 18.7177 34.3571 16.5799 34.3808 16.5414Z" fill="black"/>
<path d="M29.5452 25.56C23.72 27.5897 21.8215 31.6838 21.8044 31.7193C23.477 33.026 25.5785 33.8119 27.8652 33.8119C29.2326 33.8119 30.5333 33.5319 31.717 33.0282C31.5711 32.166 30.9963 29.1452 29.6089 25.5393C29.5874 25.5452 29.5659 25.5519 29.5452 25.56Z" fill="black"/>
<path d="M28.5481 24.0222C28.677 23.98 28.8074 23.9408 28.9356 23.9045C28.6896 23.3422 28.4193 22.7808 28.1356 22.2267C23.057 23.7474 18.1815 23.6356 18.0081 23.6326C18.0044 23.7363 18 23.8385 18 23.9437C18 26.4785 18.9563 28.7889 20.5267 30.5371L20.523 30.5311C20.5237 30.5341 23.2237 25.743 28.5481 24.0222Z" fill="black"/>
<path d="M31.4578 25.0815C32.7526 28.637 33.2778 31.5326 33.3778 32.1289C35.5941 30.6319 37.1667 28.2607 37.6067 25.5119C37.4022 25.4445 34.6422 24.5733 31.4578 25.0815Z" fill="black"/>
<path d="M29.9858 21.583C30.217 22.0534 30.4362 22.5312 30.6429 23.0141C30.717 23.1845 30.7851 23.3549 30.8555 23.5238C34.2451 23.0986 37.5844 23.8171 37.7251 23.8475C37.7044 21.506 36.8658 19.3593 35.4836 17.6801C35.4666 17.706 33.8836 19.9934 29.9858 21.583Z" fill="black"/>
</svg>
