<svg width="115" height="43" viewBox="0 0 115 43" fill="none" xmlns="http://www.w3.org/2000/svg">
<g id="Logo on dark Copy">
<path id="Shape" fill-rule="evenodd" clip-rule="evenodd" d="M3.59998 42.8111H6.51118C7.67038 42.8111 8.57878 42.4796 9.23638 41.8168C9.90238 41.1605 10.2348 40.2599 10.2348 39.1148C10.2348 37.9698 9.90838 37.0624 9.25678 36.3928C8.61238 35.7232 7.71838 35.3884 6.57238 35.3884H3.59998V42.8111ZM5.12278 41.3849V36.8147H6.58318C7.23478 36.8147 7.74238 37.0322 8.10478 37.4675C8.46838 37.9027 8.65078 38.4419 8.65078 39.0847C8.65078 39.7476 8.46838 40.2967 8.10478 40.732C7.74238 41.1672 7.23478 41.3849 6.58318 41.3849H5.12278Z" fill="white"/>
<path id="Path" fill-rule="evenodd" clip-rule="evenodd" d="M19.5491 42.8111H14.3951V35.3884H19.5491V36.7745H15.9287V38.3716H19.2815V39.7577H15.9287V41.425H19.5491V42.8111Z" fill="white"/>
<path id="Path_2" fill-rule="evenodd" clip-rule="evenodd" d="M26.7576 40.521L28.7532 35.3884H30.4812L27.3648 42.8111H26.1504L22.9932 35.3884H24.7512L26.7576 40.521Z" fill="white"/>
<path id="Path_3" fill-rule="evenodd" clip-rule="evenodd" d="M39.4225 42.8111H34.2697V35.3884H39.4225V36.7745H35.8021V38.3716H39.1549V39.7577H35.8021V41.425H39.4225V42.8111Z" fill="white"/>
<path id="Path_4" fill-rule="evenodd" clip-rule="evenodd" d="M49.0884 42.8111H43.6992V35.3884H45.2316V41.3849H49.0884V42.8111Z" fill="white"/>
<path id="Shape_2" fill-rule="evenodd" clip-rule="evenodd" d="M53.3052 41.8368C54.0528 42.5668 54.9924 42.9317 56.124 42.9317C57.2412 42.9317 58.1808 42.56 58.9416 41.8168C59.7096 41.0735 60.0936 40.1694 60.0936 39.1048C60.0936 38.04 59.7096 37.1327 58.9416 36.3827C58.1808 35.6328 57.2448 35.2578 56.1336 35.2578C55.0224 35.2578 54.084 35.6328 53.316 36.3827C52.554 37.1327 52.1736 38.0467 52.1736 39.1248C52.1736 40.1963 52.5504 41.1002 53.3052 41.8368ZM57.8208 37.4072C58.2804 37.8559 58.5096 38.4217 58.5096 39.1048C58.5168 39.7811 58.29 40.3435 57.8316 40.7922C57.372 41.2409 56.8056 41.4652 56.1336 41.4652C55.4616 41.4652 54.8964 41.2409 54.4368 40.7922C53.9844 40.3435 53.7576 39.7811 53.7576 39.1048C53.7576 38.4217 53.988 37.8559 54.4464 37.4072C54.9132 36.952 55.476 36.7242 56.1336 36.7242C56.7924 36.7242 57.354 36.952 57.8208 37.4072Z" fill="white"/>
<path id="Shape_3" fill-rule="evenodd" clip-rule="evenodd" d="M67.0236 35.3884H64.2156V42.8111H65.7372V40.2498H66.9108C67.8432 40.2498 68.5428 40.0222 69.0084 39.5668C69.4752 39.098 69.708 38.5222 69.708 37.8391C69.708 37.1495 69.4824 36.5702 69.0288 36.1015C68.5836 35.6261 67.9152 35.3884 67.0236 35.3884ZM66.9612 38.9039H65.7372V36.7644H67.044C67.38 36.7644 67.6476 36.8648 67.8468 37.0657C68.052 37.2666 68.1552 37.5178 68.1552 37.8191C68.1552 38.1338 68.0484 38.395 67.836 38.6026C67.6308 38.8034 67.3392 38.9039 66.9612 38.9039Z" fill="white"/>
<path id="Path_5" fill-rule="evenodd" clip-rule="evenodd" d="M75.1668 42.8111H73.6644V35.3884H74.6724L77.6556 39.5969L80.6076 35.3884H81.6372V42.8111H80.1144V38.6026L77.9028 41.7062H77.3784L75.1668 38.6026V42.8111Z" fill="white"/>
<path id="Path_6" fill-rule="evenodd" clip-rule="evenodd" d="M91.362 42.8111H86.208V35.3884H91.362V36.7745H87.7416V38.3716H91.0944V39.7577H87.7416V41.425H91.362V42.8111Z" fill="white"/>
<path id="Path_7" fill-rule="evenodd" clip-rule="evenodd" d="M100.616 39.9786V35.3884H102.119V42.8111H101.08L97.14 38.261V42.8111H95.6376V35.3884H96.6048L100.616 39.9786Z" fill="white"/>
<path id="Path_8" fill-rule="evenodd" clip-rule="evenodd" d="M108.156 42.8111V36.8246H105.985V35.3884H111.869V36.8246H109.698V42.8111H108.156Z" fill="white"/>
<path id="Path_9" fill-rule="evenodd" clip-rule="evenodd" d="M10.3957 27.731C8.33646 27.731 6.43086 27.302 4.6803 26.4442C2.92926 25.5862 1.52118 24.3708 0.456299 22.798L3.47346 19.116C5.22486 21.5706 7.54326 22.798 10.4305 22.798C11.5189 22.798 12.4189 22.5358 13.1281 22.0115C13.8385 21.4872 14.1937 20.808 14.1937 19.974C14.1937 18.8777 13.4005 17.9603 11.8153 17.2214C11.6257 17.1262 10.7617 16.7806 9.22326 16.1849C8.01726 15.7082 6.98766 15.2316 6.13566 14.755C3.36702 13.1582 1.9827 10.9658 1.9827 8.17752C1.9827 5.96124 2.81094 4.12632 4.4673 2.67264C6.14766 1.19508 8.30046 0.456238 10.9273 0.456238C14.3353 0.456238 17.2105 1.64784 19.5529 4.03092L16.7485 7.89156C16.0393 7.12896 15.1513 6.53328 14.0869 6.10428C13.0453 5.65152 12.0157 5.42508 10.9981 5.42508C9.95766 5.42508 9.12966 5.6634 8.51406 6.14004C7.92246 6.5928 7.62606 7.20048 7.62606 7.96308C7.62606 8.98788 8.33646 9.85764 9.75606 10.5726L12.3469 11.7164C13.8145 12.3361 14.8789 12.8008 15.5425 13.1106C18.5233 14.5643 20.0149 16.7568 20.0149 19.688C20.0149 22.0472 19.1269 23.9776 17.3521 25.479C15.5773 26.9803 13.2589 27.731 10.3957 27.731Z" fill="white"/>
<path id="Shape_4" fill-rule="evenodd" clip-rule="evenodd" d="M35.6832 0.884277H25.9932V27.3011H31.2468V18.1858H35.2932C38.5116 18.1858 40.9248 17.3754 42.534 15.7549C44.1432 14.0868 44.9484 12.0373 44.9484 9.60648C44.9484 7.15188 44.1672 5.09052 42.6048 3.42228C41.0664 1.73028 38.76 0.884277 35.6832 0.884277ZM35.4708 13.3956H31.2468V5.7816H35.754C36.9144 5.7816 37.8372 6.13908 38.5236 6.85404C39.2328 7.569 39.588 8.46264 39.588 9.53496C39.588 10.655 39.2208 11.5844 38.4876 12.3233C37.7772 13.0382 36.7716 13.3956 35.4708 13.3956Z" fill="white"/>
<path id="Path_10" fill-rule="evenodd" clip-rule="evenodd" d="M69.0372 27.3011H50.4384V0.884277H55.7268V22.2251H69.0372V27.3011Z" fill="white"/>
<path id="Path_11" fill-rule="evenodd" clip-rule="evenodd" d="M74.2236 27.3011L82.1232 0.884277H88.0464L80.1468 27.3011H74.2236Z" fill="#FF4141"/>
<path id="Path_12" fill-rule="evenodd" clip-rule="evenodd" d="M101.686 27.3011V5.99604H94.1964V0.884277H114.499V5.99604H107.01V27.3011H101.686Z" fill="white"/>
</g>
</svg>
