<svg width="115" height="43" viewBox="0 0 115 43" fill="none" xmlns="http://www.w3.org/2000/svg">
<g id="Logo on dark Copy">
<path id="Shape" fill-rule="evenodd" clip-rule="evenodd" d="M3.60001 42.811H6.51121C7.67041 42.811 8.57881 42.4796 9.23641 41.8167C9.90241 41.1604 10.2348 40.2598 10.2348 39.1148C10.2348 37.9697 9.90841 37.0623 9.25681 36.3927C8.61241 35.7231 7.71841 35.3883 6.57241 35.3883H3.60001V42.811ZM5.12281 41.3848V36.8146H6.58321C7.23481 36.8146 7.74241 37.0322 8.10481 37.4674C8.46841 37.9027 8.65081 38.4418 8.65081 39.0847C8.65081 39.7475 8.46841 40.2967 8.10481 40.7319C7.74241 41.1671 7.23481 41.3848 6.58321 41.3848H5.12281Z" fill="black"/>
<path id="Path" fill-rule="evenodd" clip-rule="evenodd" d="M19.5492 42.811H14.3952V35.3883H19.5492V36.7744H15.9288V38.3715H19.2816V39.7576H15.9288V41.4249H19.5492V42.811Z" fill="black"/>
<path id="Path_2" fill-rule="evenodd" clip-rule="evenodd" d="M26.7576 40.5209L28.7532 35.3883H30.4812L27.3648 42.811H26.1504L22.9932 35.3883H24.7512L26.7576 40.5209Z" fill="black"/>
<path id="Path_3" fill-rule="evenodd" clip-rule="evenodd" d="M39.4224 42.811H34.2696V35.3883H39.4224V36.7744H35.802V38.3715H39.1548V39.7576H35.802V41.4249H39.4224V42.811Z" fill="black"/>
<path id="Path_4" fill-rule="evenodd" clip-rule="evenodd" d="M49.0884 42.811H43.6992V35.3883H45.2316V41.3848H49.0884V42.811Z" fill="black"/>
<path id="Shape_2" fill-rule="evenodd" clip-rule="evenodd" d="M53.3052 41.8368C54.0528 42.5668 54.9924 42.9317 56.124 42.9317C57.2412 42.9317 58.1808 42.5601 58.9416 41.8168C59.7096 41.0735 60.0936 40.1694 60.0936 39.1048C60.0936 38.04 59.7096 37.1327 58.9416 36.3827C58.1808 35.6328 57.2448 35.2578 56.1336 35.2578C55.0224 35.2578 54.084 35.6328 53.316 36.3827C52.554 37.1327 52.1736 38.0467 52.1736 39.1248C52.1736 40.1963 52.5504 41.1003 53.3052 41.8368ZM57.8208 37.4073C58.2804 37.8559 58.5096 38.4217 58.5096 39.1048C58.5168 39.7811 58.29 40.3435 57.8316 40.7922C57.372 41.2409 56.8056 41.4652 56.1336 41.4652C55.4616 41.4652 54.8964 41.2409 54.4368 40.7922C53.9844 40.3435 53.7576 39.7811 53.7576 39.1048C53.7576 38.4217 53.988 37.8559 54.4464 37.4073C54.9132 36.952 55.476 36.7242 56.1336 36.7242C56.7924 36.7242 57.354 36.952 57.8208 37.4073Z" fill="black"/>
<path id="Shape_3" fill-rule="evenodd" clip-rule="evenodd" d="M67.0236 35.3883H64.2156V42.811H65.7372V40.2497H66.9108C67.8432 40.2497 68.5428 40.0221 69.0084 39.5667C69.4752 39.098 69.708 38.5221 69.708 37.8391C69.708 37.1494 69.4824 36.5702 69.0288 36.1015C68.5836 35.626 67.9152 35.3883 67.0236 35.3883ZM66.9612 38.9038H65.7372V36.7643H67.044C67.38 36.7643 67.6476 36.8648 67.8468 37.0657C68.052 37.2665 68.1552 37.5177 68.1552 37.819C68.1552 38.1338 68.0484 38.3949 67.836 38.6025C67.6308 38.8034 67.3392 38.9038 66.9612 38.9038Z" fill="black"/>
<path id="Path_5" fill-rule="evenodd" clip-rule="evenodd" d="M75.1668 42.811H73.6644V35.3883H74.6724L77.6556 39.5968L80.6076 35.3883H81.6372V42.811H80.1144V38.6025L77.9028 41.7062H77.3784L75.1668 38.6025V42.811Z" fill="black"/>
<path id="Path_6" fill-rule="evenodd" clip-rule="evenodd" d="M91.362 42.811H86.208V35.3883H91.362V36.7744H87.7416V38.3715H91.0944V39.7576H87.7416V41.4249H91.362V42.811Z" fill="black"/>
<path id="Path_7" fill-rule="evenodd" clip-rule="evenodd" d="M100.616 39.9785V35.3883H102.119V42.811H101.08L97.14 38.261V42.811H95.6376V35.3883H96.6048L100.616 39.9785Z" fill="black"/>
<path id="Path_8" fill-rule="evenodd" clip-rule="evenodd" d="M108.156 42.811V36.8246H105.985V35.3883H111.869V36.8246H109.698V42.811H108.156Z" fill="black"/>
<path id="Path_9" fill-rule="evenodd" clip-rule="evenodd" d="M10.3956 27.7311C8.3364 27.7311 6.4308 27.3021 4.68024 26.4442C2.9292 25.5862 1.52112 24.3709 0.456238 22.798L3.4734 19.1161C5.2248 21.5707 7.5432 22.798 10.4304 22.798C11.5188 22.798 12.4188 22.5358 13.128 22.0115C13.8384 21.4873 14.1936 20.8081 14.1936 19.9741C14.1936 18.8777 13.4004 17.9603 11.8152 17.2215C11.6256 17.1262 10.7616 16.7806 9.2232 16.1849C8.0172 15.7083 6.9876 15.2317 6.1356 14.755C3.36696 13.1583 1.98264 10.9659 1.98264 8.17758C1.98264 5.9613 2.81088 4.12638 4.46724 2.6727C6.1476 1.19514 8.3004 0.456299 10.9272 0.456299C14.3352 0.456299 17.2104 1.6479 19.5528 4.03098L16.7484 7.89162C16.0392 7.12902 15.1512 6.53334 14.0868 6.10434C13.0452 5.65158 12.0156 5.42514 10.998 5.42514C9.9576 5.42514 9.1296 5.66346 8.514 6.1401C7.9224 6.59286 7.626 7.20054 7.626 7.96314C7.626 8.98794 8.3364 9.8577 9.756 10.5727L12.3468 11.7165C13.8144 12.3362 14.8788 12.8008 15.5424 13.1107C18.5232 14.5643 20.0148 16.7569 20.0148 19.6881C20.0148 22.0473 19.1268 23.9776 17.352 25.4791C15.5772 26.9804 13.2588 27.7311 10.3956 27.7311Z" fill="black"/>
<path id="Shape_4" fill-rule="evenodd" clip-rule="evenodd" d="M35.6832 0.884277H25.9932V27.3011H31.2468V18.1858H35.2932C38.5116 18.1858 40.9248 17.3754 42.534 15.7549C44.1432 14.0868 44.9484 12.0373 44.9484 9.60648C44.9484 7.15188 44.1672 5.09052 42.6048 3.42228C41.0664 1.73028 38.76 0.884277 35.6832 0.884277ZM35.4708 13.3956H31.2468V5.7816H35.754C36.9144 5.7816 37.8372 6.13908 38.5236 6.85404C39.2328 7.569 39.588 8.46264 39.588 9.53496C39.588 10.655 39.2208 11.5844 38.4876 12.3233C37.7772 13.0382 36.7716 13.3956 35.4708 13.3956Z" fill="black"/>
<path id="Path_10" fill-rule="evenodd" clip-rule="evenodd" d="M69.0372 27.3011H50.4384V0.884277H55.7268V22.2251H69.0372V27.3011Z" fill="black"/>
<path id="Path_11" fill-rule="evenodd" clip-rule="evenodd" d="M74.2236 27.3011L82.1232 0.884277H88.0464L80.1468 27.3011H74.2236Z" fill="#FF4141"/>
<path id="Path_12" fill-rule="evenodd" clip-rule="evenodd" d="M101.686 27.3011V5.99604H94.1964V0.884277H114.499V5.99604H107.01V27.3011H101.686Z" fill="black"/>
</g>
</svg>
