<svg width="85" height="101" viewBox="0 0 85 101" fill="none" xmlns="http://www.w3.org/2000/svg">
<path d="M61.5922 100H23.173C16.6008 100 11.0236 94.8744 10.4689 88.3273L9.36484 76.7506C9.21074 75.1336 10.3963 73.6977 12.0133 73.5436C13.633 73.3928 15.0666 74.5754 15.2207 76.1924L16.3264 87.7856C16.3275 87.7971 16.3285 87.8088 16.3297 87.8205C16.6238 91.3518 19.6303 94.1176 23.1734 94.1176H61.5926C65.1357 94.1176 68.1424 91.3518 68.4363 87.8205C68.4373 87.8088 68.4385 87.7971 68.4396 87.7856L69.5453 76.1924C69.6998 74.5756 71.1336 73.3922 72.7527 73.5436C74.3697 73.6977 75.5555 75.1336 75.4012 76.7506L74.2971 88.3273C73.7416 94.8744 68.1648 100 61.5922 100Z" fill="#FA333C"/>
<path d="M10.4996 55.8832C8.97637 55.8832 7.6875 54.709 7.57012 53.1652L5.33223 23.7529C5.20898 22.1332 6.42226 20.7203 8.0416 20.5973C9.65898 20.4682 11.0742 21.6869 11.1975 23.3066L13.4352 52.719C13.5584 54.3387 12.3451 55.7516 10.7258 55.8746C10.6498 55.8807 10.5742 55.8832 10.4996 55.8832Z" fill="#FA333C"/>
<path d="M76.584 15.5885H68.3926V8.15157C68.3926 5.27384 66.06 2.94122 63.1822 2.94122H21.5838C18.706 2.94122 16.3734 5.27384 16.3734 8.15157V15.5887H8.18163C5.3039 15.5887 2.97128 17.9213 2.97128 20.799V27.1426C2.97128 30.0203 5.3039 32.3529 8.18163 32.3529H76.5838C79.4615 32.3529 81.7941 30.0203 81.7941 27.1426V20.7988C81.7943 17.9211 79.4617 15.5885 76.584 15.5885Z" fill="#FF787E"/>
<path fill-rule="evenodd" clip-rule="evenodd" d="M8.18164 35.2941H76.584C81.0787 35.2941 84.7355 31.6371 84.7357 27.1426V20.799C84.7357 16.3043 81.0789 12.6475 76.5842 12.6475H71.3336V8.15156C71.3336 3.65684 67.6768 0 63.182 0H21.5838C17.0891 0 13.4322 3.65684 13.4322 8.15156V12.6473H8.18164C3.68691 12.6473 0.0300751 16.3041 0.0300751 20.7988V27.1424C0.0300751 31.6371 3.68691 35.2941 8.18164 35.2941ZM5.9125 20.7988C5.9125 19.5477 6.93047 18.5297 8.18164 18.5297V18.5299H16.3734C17.9978 18.5299 19.3146 17.2127 19.3146 15.5887V8.15156C19.3146 6.90039 20.3326 5.88242 21.5838 5.88242H63.1816C64.4328 5.88242 65.4508 6.90039 65.4508 8.15156V15.5885C65.4508 17.2127 66.7676 18.5297 68.392 18.5297H76.5838C77.835 18.5297 78.8529 19.5477 78.8529 20.7988V27.1424C78.8529 28.3937 77.835 29.4117 76.5838 29.4117H8.18164C6.93047 29.4117 5.9125 28.3939 5.9125 27.1424V20.7988Z" fill="#FA333C"/>
<path d="M52.3828 18.5297H16.3734C14.749 18.5297 13.4322 17.2127 13.4322 15.5885C13.4322 13.9643 14.749 12.6473 16.3734 12.6473H52.3828C54.0072 12.6473 55.324 13.9643 55.324 15.5885C55.324 17.2127 54.007 18.5297 52.3828 18.5297Z" fill="#FA333C"/>
<path d="M73.4051 79.4127H11.3605C8.32285 79.4127 5.79492 77.0379 5.60547 74.0063L4.48789 56.1271C4.38906 54.5447 4.95469 52.9744 6.04024 51.8191C7.12559 50.6635 8.65762 50.001 10.243 50.001H52.3828C54.0072 50.001 55.324 51.318 55.324 52.9422C55.324 54.5662 54.0072 55.8834 52.3828 55.8834H10.3666L11.4695 73.5305H73.2961L74.399 55.8834H69.5396C67.9152 55.8834 66.5984 54.5664 66.5984 52.9422C66.5984 51.3182 67.9152 50.001 69.5396 50.001H74.5227C76.108 50.001 77.64 50.6637 78.7254 51.8191C79.8109 52.9748 80.377 54.5451 80.2777 56.1271L79.1602 74.0063C78.9707 77.0379 76.4428 79.4127 73.4051 79.4127Z" fill="#FA333C"/>
</svg>
