<svg width="59" height="100" viewBox="0 0 59 100" fill="none" xmlns="http://www.w3.org/2000/svg">
<path d="M34.9762 100H19.8899C15.8031 100 12.2772 97.2262 11.3147 93.2549L9.32208 85.0346C8.96564 83.5639 9.86896 82.083 11.3395 81.7264C12.8108 81.3701 14.291 82.2732 14.6477 83.7437L16.6402 91.9644C17.0049 93.4697 18.3414 94.5207 19.8902 94.5207H34.9766C36.5254 94.5207 37.8615 93.4697 38.2266 91.9644L43.6754 69.4844C44.0318 68.0137 45.5139 67.1109 46.9834 67.467C48.4541 67.8234 49.3572 69.3045 49.0008 70.775L43.552 93.2551C42.5889 97.2266 39.0629 100 34.9762 100Z" fill="#FA333C"/>
<path d="M8.53068 32.6109C8.31701 32.6109 8.10001 32.5857 7.88302 32.5332C6.41232 32.1768 5.50919 30.6957 5.86564 29.2252L11.3145 6.74512C12.2774 2.77383 15.8033 0 19.8901 0H34.9764C39.0631 0 42.5891 2.77383 43.5516 6.74512L45.4719 14.668C45.8283 16.1385 44.925 17.6195 43.4545 17.976C41.9846 18.3324 40.5029 17.4293 40.1465 15.9586L38.2262 8.03574C37.8615 6.53047 36.525 5.47949 34.9762 5.47949H19.8901C18.3412 5.47949 17.0049 6.53047 16.6401 8.03574L11.1912 30.5158C10.8871 31.7695 9.76603 32.6109 8.53068 32.6109Z" fill="#FA333C"/>
<path d="M39.4514 73.0594H15.4148C8.44824 73.0594 2.80038 67.4117 2.80038 60.4449V39.5551C2.80038 32.5885 8.44804 26.9406 15.4148 26.9406H39.4514C46.418 26.9406 52.0658 32.5883 52.0658 39.5551V60.4449C52.0654 67.4115 46.418 73.0594 39.4514 73.0594Z" fill="#FF787E"/>
<path fill-rule="evenodd" clip-rule="evenodd" d="M15.4152 75.799H39.4514C47.9176 75.799 54.8053 68.9111 54.8055 60.4449V39.5551C54.8055 31.0887 47.9176 24.201 39.4514 24.201H15.4152C6.94882 24.201 0.0611267 31.0889 0.0611267 39.5551V60.4449C0.0611267 68.9113 6.94902 75.799 15.4152 75.799ZM5.54023 39.5553C5.54023 34.1104 9.96992 29.6807 15.4148 29.6807H39.4512C44.8961 29.6807 49.3258 34.1104 49.3258 39.5553V60.4451C49.3258 65.8901 44.8961 70.3197 39.4512 70.3197H15.4148C9.96992 70.3197 5.54023 65.8901 5.54023 60.4451V39.5553Z" fill="#FA333C"/>
<path d="M26.0629 56.9219C24.5533 56.9219 23.0434 56.3473 21.8941 55.1981L17.0412 50.3451C15.9713 49.2752 15.9713 47.5404 17.0412 46.4703C18.1111 45.4004 19.8459 45.4004 20.916 46.4703L25.7689 51.3233C25.8695 51.424 25.9844 51.4451 26.0629 51.4451C26.1416 51.4451 26.2563 51.424 26.3568 51.3233L33.8021 43.8779C34.8721 42.808 36.6068 42.808 37.677 43.8779C38.7469 44.9479 38.7469 46.6826 37.677 47.7527L30.2316 55.1981C29.0824 56.3473 27.5729 56.9219 26.0629 56.9219Z" fill="#FA333C"/>
<path d="M56.1836 60.0002H52.0654C50.5523 60.0002 49.3256 58.7736 49.3256 57.2604V42.7397C49.3256 41.2266 50.5522 39.9998 52.0654 39.9998H56.1836C57.6967 39.9998 58.9234 41.2264 58.9234 42.7397V57.2604C58.9234 58.7736 57.6969 60.0002 56.1836 60.0002Z" fill="#FA333C"/>
</svg>
