<svg width="115" height="100" viewBox="0 0 115 100" fill="none" xmlns="http://www.w3.org/2000/svg">
<path d="M74.3166 50.7204H40.4818V45.7971C40.4818 36.4538 48.0561 28.8798 57.3991 28.8798C66.7424 28.8798 74.3164 36.454 74.3164 45.7971V50.7204H74.3166Z" fill="#FF787E"/>
<path fill-rule="evenodd" clip-rule="evenodd" d="M37.3776 50.7202C37.3776 52.4343 38.7677 53.8244 40.4818 53.8244H74.3164C76.0307 53.8244 77.4204 52.4347 77.4202 50.7202V45.7968C77.4202 34.7571 68.4386 25.7751 57.3989 25.7751C46.3592 25.7751 37.3776 34.7571 37.3776 45.7968V50.7202ZM71.2121 45.7971V47.6161H43.5861V45.7971C43.5861 38.1805 49.7827 31.9838 57.3991 31.9838C65.0155 31.9838 71.2121 38.1802 71.2121 45.7971Z" fill="#FA333C"/>
<circle cx="57.3993" cy="15.9659" r="12.7738" fill="#FF787E"/>
<path fill-rule="evenodd" clip-rule="evenodd" d="M41.5206 15.9659C41.5206 24.7218 48.6437 31.8449 57.3991 31.8449C66.1545 31.8449 73.278 24.7215 73.2776 15.9659C73.2776 7.21056 66.1545 0.0874634 57.3991 0.0874634C48.6437 0.0874634 41.5206 7.21056 41.5206 15.9659ZM47.7289 15.9657C47.7289 10.6337 52.0668 6.29554 57.3991 6.29554C62.7314 6.29554 67.0693 10.6337 67.0693 15.9657C67.0693 21.2978 62.7312 25.6361 57.3991 25.6361C52.067 25.6361 47.7289 21.2978 47.7289 15.9657Z" fill="#FA333C"/>
<path d="M111.694 99.9125H83.1729C81.4587 99.9125 80.0686 98.5224 80.0686 96.8083V92.6583C80.0686 83.0834 87.8585 75.2937 97.4334 75.2937C99.1475 75.2937 100.538 76.6838 100.538 78.398C100.538 80.1121 99.1475 81.5022 97.4334 81.5022C91.2818 81.5022 86.2769 86.5067 86.2769 92.6583V93.704H108.59V92.6583C108.59 91.7475 108.48 90.8419 108.264 89.9672C107.852 88.3031 108.867 86.6204 110.532 86.2087C112.195 85.7964 113.879 86.8125 114.29 88.4773C114.627 89.8392 114.798 91.2459 114.798 92.6587V96.8087C114.798 98.5228 113.409 99.9125 111.694 99.9125Z" fill="#FA333C"/>
<path fill-rule="evenodd" clip-rule="evenodd" d="M83.5563 67.6296C83.5563 75.2789 89.7791 81.5022 97.4285 81.5022C105.078 81.5022 111.301 75.2791 111.301 67.6296C111.301 59.9807 105.077 53.7574 97.4285 53.7574C89.7796 53.7574 83.5563 59.9803 83.5563 67.6296ZM89.7646 67.6294C89.7646 63.4033 93.2025 59.9655 97.4285 59.9655C101.655 59.9655 105.092 63.4033 105.092 67.6294C105.092 71.8554 101.654 75.2935 97.4285 75.2935C93.2025 75.2935 89.7646 71.8554 89.7646 67.6294Z" fill="#FA333C"/>
<path d="M31.6253 99.9126H3.10426C1.39013 99.9126 0 98.5226 0 96.8085V92.6585C0 83.0836 7.78991 75.2939 17.3646 75.2939C19.0787 75.2939 20.4688 76.6841 20.4688 78.3982C20.4688 80.1123 19.0787 81.5025 17.3646 81.5025C11.213 81.5025 6.20852 86.507 6.20852 92.6585V93.7043H28.5213V92.6585C28.5213 91.7478 28.4114 90.8422 28.1951 89.9675C27.7839 88.3034 28.7991 86.6206 30.4637 86.209C32.1267 85.7966 33.8105 86.8128 34.2222 88.4776C34.559 89.8395 34.7298 91.2462 34.7298 92.659V96.809C34.7296 98.5229 33.3395 99.9126 31.6253 99.9126Z" fill="#FA333C"/>
<path fill-rule="evenodd" clip-rule="evenodd" d="M3.48767 67.6296C3.48767 75.2789 9.71054 81.5022 17.3599 81.5022C25.0087 81.5022 31.2321 75.2791 31.2321 67.6296C31.2321 59.9807 25.0087 53.7574 17.3599 53.7574C9.71099 53.7574 3.48767 59.9803 3.48767 67.6296ZM9.69597 67.6294C9.69597 63.4033 13.1339 59.9655 17.3599 59.9655C21.5859 59.9655 25.0238 63.4033 25.0238 67.6294C25.0238 71.8554 21.5859 75.2935 17.3599 75.2935C13.1339 75.2935 9.69597 71.8554 9.69597 67.6294Z" fill="#FA333C"/>
<path d="M57.3991 80.172C55.685 80.172 54.2948 78.7819 54.2948 77.0677V61.2556C54.2948 59.5415 55.685 58.1514 57.3991 58.1514C59.1132 58.1514 60.5034 59.5415 60.5034 61.2556V77.0677C60.5034 78.7821 59.1135 80.172 57.3991 80.172Z" fill="#FA333C"/>
<path d="M78.3471 80.172H36.4516C34.7374 80.172 33.3473 78.7818 33.3473 77.0677C33.3473 75.3536 34.7374 73.9634 36.4516 73.9634H78.3471C80.0612 73.9634 81.4513 75.3536 81.4513 77.0677C81.4513 78.7818 80.0612 80.172 78.3471 80.172Z" fill="#FA333C"/>
</svg>
