<svg width="91" height="101" viewBox="0 0 91 101" fill="none" xmlns="http://www.w3.org/2000/svg">
<path d="M60.2871 73.5556L45.0859 86.0001L29.8848 73.5556L39.8859 28.9652H50.286L60.2871 73.5556Z" fill="#FF787E"/>
<path fill-rule="evenodd" clip-rule="evenodd" d="M43.1857 88.3216C43.7384 88.774 44.4122 89.0002 45.0859 89.0002C45.7597 89.0002 46.4335 88.774 46.9864 88.3216L62.1875 75.8775C63.0653 75.1587 63.4627 74.006 63.2144 72.8993L53.2131 28.3085C52.906 26.9383 51.6901 25.9648 50.286 25.9648H39.8861C38.4824 25.9648 37.2663 26.9387 36.959 28.3085L26.9577 72.8993C26.7095 74.0064 27.1068 75.1587 27.9846 75.8775L43.1857 88.3216ZM45.0859 82.1231L33.2169 72.4069L42.2879 31.9652H47.8844L56.955 72.4069L45.0859 82.1231Z" fill="#FA333C"/>
<path fill-rule="evenodd" clip-rule="evenodd" d="M22.3906 34.1854C23.4124 36.0206 25.3531 37.1609 27.4552 37.1609C29.3006 37.1609 30.9923 36.3113 32.0965 34.8304L45.4183 16.9649C45.927 16.2826 46.122 15.4163 45.9546 14.582C45.7875 13.7471 45.2733 13.0228 44.541 12.5897L25.0254 1.04281C23.8726 0.360687 22.5663 0 21.2481 0C17.1453 0 13.8078 3.33733 13.8078 7.43937V17.9918C13.8078 18.5025 13.938 19.0049 14.1867 19.4511L22.3906 34.1854ZM27.4776 30.9876L19.8079 17.2127V7.43957C19.8079 6.55029 20.5557 6.00012 21.2483 6.00012C21.4955 6.00012 21.7384 6.0695 21.9701 6.20651L38.6132 16.0541L27.4776 30.9876Z" fill="#FA333C"/>
<path fill-rule="evenodd" clip-rule="evenodd" d="M62.7167 37.1609H62.7172C64.819 37.1609 66.7598 36.0206 67.7813 34.1856L75.9851 19.4513C76.2335 19.0051 76.3641 18.5025 76.3641 17.992V7.43957C76.3641 3.33733 73.0264 0 68.9238 0C67.6054 0 66.2994 0.360299 65.1466 1.04222L45.631 12.5895C44.8988 13.0232 44.3848 13.7471 44.2174 14.5818C44.0499 15.4161 44.245 16.2826 44.7538 16.9648L58.0755 34.8302C59.1799 36.3113 60.8716 37.1605 62.7167 37.1609ZM62.6945 30.9876L51.5589 16.0541L68.2022 6.20651C68.4334 6.0695 68.6764 6.00012 68.924 6.00012C69.6166 6.00012 70.3642 6.55029 70.3642 7.43957V17.2127L62.6945 30.9876Z" fill="#FA333C"/>
<path d="M47.1589 15.1714H43.0131L34.0484 27.1942L36.1123 33.4969H54.0596L56.1234 27.1938L47.1589 15.1714Z" fill="#FF787E"/>
<path fill-rule="evenodd" clip-rule="evenodd" d="M36.1125 36.4971H54.0596C55.3566 36.4971 56.5071 35.6634 56.9119 34.4303L58.9755 28.1272C59.2791 27.1998 59.1125 26.1827 58.5293 25.4005L49.5648 13.3781C48.9985 12.6188 48.1069 12.1714 47.1597 12.1714H43.0139C42.0665 12.1714 41.1749 12.6188 40.6088 13.3781L31.6441 25.4005C31.0605 26.1829 30.8944 27.1998 31.1979 28.1272L33.2616 34.4303C33.665 35.6634 34.8153 36.4971 36.1125 36.4971ZM51.885 30.4969H38.2867L37.3838 27.7395L44.5183 18.1714H45.6536L52.7881 27.7395L51.885 30.4969Z" fill="#FA333C"/>
<path d="M74.6948 99.5H60.2871C58.6302 99.5 57.2871 98.1565 57.2871 96.5C57.2871 94.8435 58.6302 93.5001 60.2871 93.5001H74.6948C79.9109 93.5001 84.1548 89.2561 84.1548 84.04V35.5695C84.1548 33.9668 83.5308 32.4605 82.3974 31.3271C81.226 30.1557 81.226 28.256 82.3974 27.0842C83.5689 25.9129 85.4685 25.9129 86.6404 27.0842C88.9069 29.3507 90.155 32.3643 90.155 35.5693V84.0394C90.155 92.5645 83.2195 99.5 74.6948 99.5Z" fill="#FA333C"/>
<path d="M42.086 99.5H15.4771C6.95217 99.5 0.0169067 92.5645 0.0169067 84.0398V35.5695C0.0169067 32.3643 1.26493 29.3509 3.53147 27.0848L14.3037 16.3122C15.4752 15.1409 17.3748 15.1409 18.5466 16.3122C19.7181 17.4836 19.7181 19.3833 18.5466 20.5551L7.77402 31.3273C6.64085 32.4605 6.01683 33.967 6.01683 35.5697V84.0398C6.01683 89.2564 10.2607 93.4999 15.4769 93.4999H42.0856C43.7425 93.4999 45.0855 94.8433 45.0855 96.4998C45.0855 98.1563 43.7429 99.5 42.086 99.5Z" fill="#FA333C"/>
</svg>
