<svg xmlns="http://www.w3.org/2000/svg" width="91" height="34" viewBox="0 0 91 34"><g><g><g><path fill="#fff" d="M5.208 29.108c.517 0 .919.172 1.206.516.288.344.432.77.432 1.279 0 .524-.144.958-.432 1.302-.287.344-.69.516-1.206.516H4.052v-3.613zm2.099 3.955c.526-.519.79-1.231.79-2.136 0-.906-.259-1.623-.774-2.153-.51-.53-1.217-.794-2.123-.794H2.85v5.87h2.302c.916 0 1.635-.263 2.155-.787z"/></g><g><path fill="#fff" d="M15.455 33.85H11.38v-5.87h4.075v1.096h-2.862v1.263h2.65v1.096h-2.65v1.318h2.862z"/></g><g><path fill="#fff" d="M21.157 32.038l1.577-4.058h1.367l-2.464 5.87h-.96l-2.497-5.87h1.39z"/></g><g><path fill="#fff" d="M31.174 33.85H27.1v-5.87h4.074v1.096h-2.862v1.263h2.65v1.096h-2.65v1.318h2.862z"/></g><g><path fill="#fff" d="M38.811 33.85H34.55v-5.87h1.212v4.741h3.05z"/></g><g><path fill="#fff" d="M45.722 32.256c-.363.355-.81.532-1.34.532-.532 0-.978-.177-1.341-.532-.357-.355-.537-.8-.537-1.334 0-.54.182-.988.545-1.342a1.84 1.84 0 0 1 1.332-.54c.52 0 .964.18 1.333.54.363.354.544.802.544 1.342.006.535-.174.98-.536 1.334zm.88.81c.607-.588.91-1.302.91-2.144 0-.842-.303-1.56-.91-2.153-.602-.592-1.342-.889-2.22-.889-.88 0-1.621.297-2.229.89a2.927 2.927 0 0 0-.903 2.168c0 .847.298 1.562.895 2.144.59.577 1.334.866 2.229.866.883 0 1.626-.294 2.227-.882z"/></g><g><path fill="#fff" d="M51.983 29.068h1.039c.267 0 .48.08.638.238a.798.798 0 0 1 .245.596.828.828 0 0 1-.254.62c-.163.158-.395.238-.695.238h-.973zm-1.203 4.781h1.203v-2.025h.928c.737 0 1.29-.18 1.659-.54.369-.37.553-.826.553-1.366 0-.545-.179-1.003-.537-1.374-.352-.376-.88-.564-1.586-.564h-2.22z"/></g><g><path fill="#fff" d="M59.438 33.85H58.25v-5.87h.797l2.359 3.328 2.334-3.328h.814v5.87H63.35V30.52l-1.749 2.455h-.414l-1.75-2.455z"/></g><g><path fill="#fff" d="M72.235 33.85H68.16v-5.87h4.075v1.096h-2.862v1.263h2.65v1.096h-2.65v1.318h2.862z"/></g><g><path fill="#fff" d="M79.557 31.61v-3.63h1.188v5.87h-.822l-3.115-3.599v3.598H75.62V27.98h.765z"/></g><g><path fill="#fff" d="M85.516 33.85v-4.734H83.8V27.98h4.652v1.136h-1.716v4.733z"/></g><g><path fill="#fff" d="M8.219 21.926c-1.628 0-3.135-.34-4.52-1.017A8.44 8.44 0 0 1 .36 18.026l2.386-2.912c1.384 1.941 3.218 2.912 5.5 2.912.861 0 1.573-.208 2.134-.622.561-.415.842-.952.842-1.611 0-.867-.627-1.593-1.88-2.177-.15-.075-.834-.348-2.05-.82a20.432 20.432 0 0 1-2.441-1.13c-2.19-1.263-3.284-2.996-3.284-5.2 0-1.753.655-3.204 1.964-4.353C4.861.944 6.562.36 8.64.36c2.695 0 4.968.942 6.82 2.826L13.243 6.24c-.56-.603-1.263-1.074-2.104-1.413-.824-.358-1.638-.537-2.443-.537-.822 0-1.477.188-1.964.565-.468.358-.702.839-.702 1.442 0 .81.562 1.498 1.684 2.063l2.049.904c1.16.49 2.002.858 2.527 1.103 2.357 1.15 3.536 2.883 3.536 5.2 0 1.866-.702 3.392-2.106 4.58-1.403 1.187-3.236 1.78-5.5 1.78z"/></g><g><path fill="#fff" d="M24.704 4.572h3.564c.917 0 1.647.283 2.19.848.56.566.841 1.272.841 2.12 0 .886-.29 1.62-.87 2.205-.561.565-1.357.848-2.385.848h-3.34zM20.55 21.588h4.154V14.38h3.2c2.544 0 4.452-.64 5.725-1.922 1.272-1.319 1.909-2.94 1.909-4.861 0-1.941-.618-3.571-1.853-4.89C32.468 1.369 30.645.7 28.212.7H20.55z"/></g><g><path fill="#fff" d="M54.586 21.588H39.88V.7h4.182v16.874h10.524z"/></g><g><path fill="#ff4141" d="M58.69 21.588L64.936.7h4.684l-6.247 20.888z"/></g><g><path fill="#fff" d="M80.402 21.588V4.742H74.48V.7h16.053v4.042h-5.921v16.846z"/></g></g></g></svg>