<svg xmlns="http://www.w3.org/2000/svg" width="327" height="235" viewBox="0 0 327 235"><defs><clipPath id="t0rga"><path d="M33.7 121.26h3.67v3.67H33.7z"/></clipPath><clipPath id="t0rgb"><path d="M50.79 138.36h3.67v3.67h-3.67z"/></clipPath></defs><g><g><g><path fill="#cff2fe" fill-opacity=".3" d="M0 0h327v234.17H0z"/></g><g><g transform="rotate(90 45.5 132)"><g><g/><g clip-path="url(#t0rga)"><path fill="#1c2e34" d="M37.37 123.095a1.835 1.835 0 1 1-3.67 0 1.835 1.835 0 0 1 3.67 0"/></g></g><g><path fill="#fa6400" d="M43.07 128.795a1.835 1.835 0 1 1-3.67 0 1.835 1.835 0 0 1 3.67 0"/></g><g><path fill="#0086ff" d="M48.77 134.495a1.835 1.835 0 1 1-3.67 0 1.835 1.835 0 0 1 3.67 0"/></g><g><g/><g clip-path="url(#t0rgb)"><path fill="#ffe23d" d="M54.46 140.195a1.835 1.835 0 1 1-3.67 0 1.835 1.835 0 0 1 3.67 0"/></g></g></g><g><g><g><text dominant-baseline="text-before-edge" style="font-kerning:normal" fill="#66696e" font-family="'Mont','Mont-Regular'" font-size="5.45" transform="translate(107 204)"><tspan style="font-kerning:normal">Social Network for Developers and Teams</tspan></text></g></g><g><g><text dominant-baseline="text-before-edge" style="line-height:18.19461538461538px;font-kerning:normal" fill="#2e2e2e" font-family="'Mont SemiBold','Mont-SemiBold'" font-size="13.42" letter-spacing="-.1" transform="translate(64 176)"><tspan>Not an </tspan><tspan fill="#09f">Employer</tspan><tspan fill="#09f">Person</tspan></text></g></g></g><g><g><path fill="#d7effe" d="M91.933 23.96c-15.184 0-27.607 12.423-27.607 27.606 0 15.183 12.423 27.606 27.607 27.606 3.046 0 5.54 2.493 5.54 5.54s-2.494 5.54-5.54 5.54H77.487c-7.406 0-13.467 6.06-13.467 13.468 0 7.407 6.06 13.467 13.467 13.467 6.406 0 11.647 5.242 11.647 11.647 0 11.688 9.563 21.251 21.251 21.251h124.749c15.184 0 27.606-12.423 27.606-27.606 0-15.183-12.422-27.606-27.606-27.606h-2.67c-3.046 0-5.54-2.493-5.54-5.54s2.494-5.54 5.54-5.54h17.975c7.407 0 13.468-6.061 13.468-13.468 0-7.398-6.047-13.454-13.442-13.467h-14.462c-6.406 0-11.647-5.241-11.647-11.647 0-11.688-9.563-21.251-21.251-21.251z"/></g><g><path fill="#444c9f" d="M201.112 39.472a8.276 8.276 0 0 1 5.872-2.432c2.124 0 4.25.81 5.87 2.432a8.28 8.28 0 0 1 2.433 5.871c0 2.125-.81 4.25-2.432 5.872a8.278 8.278 0 0 1-5.871 2.432c-2.125 0-4.25-.811-5.872-2.432a8.276 8.276 0 0 1-2.432-5.872zm5.872-1.243c-1.821 0-3.642.694-5.031 2.083a7.091 7.091 0 0 0-2.084 5.031c0 1.82.695 3.641 2.084 5.03a7.093 7.093 0 0 0 5.03 2.085c1.82 0 3.642-.695 5.031-2.084a7.093 7.093 0 0 0 2.084-5.03c0-1.821-.695-3.643-2.084-5.032z"/></g><g><path fill="#444c9f" d="M212.014 51.215a.594.594 0 1 1 .841-.84l1.965 1.964a.594.594 0 1 1-.84.841z"/></g><g><path fill="#444c9f" d="M214.058 54.1a1.189 1.189 0 1 1 1.682-1.681l9.066 9.066a1.189 1.189 0 1 1-1.682 1.681z"/></g><g><path fill="#fff" d="M210.847 41.453a.372.372 0 0 1 0-.524.368.368 0 0 1 .522 0 6.196 6.196 0 0 1 1.343 2.017c.314.76.47 1.571.47 2.382h.002c0 .58-.08 1.16-.242 1.723a.369.369 0 1 1-.71-.203 5.515 5.515 0 0 0 .213-1.52h.002c0-.714-.139-1.43-.416-2.101zm.738 6.837a.37.37 0 0 1 .623.4 6.19 6.19 0 0 1-.837 1.038.37.37 0 0 1-.524-.525c.145-.144.276-.29.395-.437zm-8.488.922a.371.371 0 1 1-.525.526 6.24 6.24 0 0 1-1.406-6.646.369.369 0 1 1 .69.264 5.466 5.466 0 0 0-.364 1.975c0 .718.138 1.435.416 2.105zm-.57-7.086a.374.374 0 0 1-.52.084.368.368 0 0 1-.085-.516c.1-.137.205-.27.313-.396l.018-.019c.112-.13.22-.247.325-.35a.376.376 0 0 1 .528 0 .37.37 0 0 1 0 .524c-.11.11-.206.211-.288.306l-.017.02z"/></g><g><path fill="#9d9fcf" d="M208.782 47.823a.358.358 0 1 0 .36.621c.544-.316.999-.771 1.315-1.318.305-.53.48-1.142.48-1.793a3.58 3.58 0 0 0-1.053-2.54 3.582 3.582 0 0 0-2.54-1.053c-.993 0-1.891.402-2.541 1.052a3.58 3.58 0 0 0-1.053 2.541.36.36 0 0 0 .719 0c0-.793.322-1.512.842-2.032a2.864 2.864 0 0 1 2.032-.842c.794 0 1.513.321 2.033.842.52.52.842 1.239.842 2.032a2.864 2.864 0 0 1-1.436 2.49"/></g><g><path fill="#9d9fcf" d="M235.853 110.09a14.341 14.341 0 0 1 10.17 4.213 14.337 14.337 0 0 1 4.213 10.17 14.34 14.34 0 0 1-4.212 10.17 14.346 14.346 0 0 1-10.17 4.213 14.344 14.344 0 0 1-10.172-4.213 14.34 14.34 0 0 1-4.212-10.17 14.336 14.336 0 0 1 4.212-10.17 14.403 14.403 0 0 1 4.672-3.123zm5.292 1.594a13.802 13.802 0 0 0-5.292-1.047c-1.875 0-3.663.373-5.292 1.047-1.69.7-3.215 1.729-4.491 3.006a13.852 13.852 0 0 0-3.006 4.49 13.804 13.804 0 0 0-1.047 5.293 13.8 13.8 0 0 0 1.047 5.292 13.852 13.852 0 0 0 3.006 4.491 13.856 13.856 0 0 0 4.491 3.006 13.803 13.803 0 0 0 5.292 1.047c1.875 0 3.663-.373 5.292-1.047a13.854 13.854 0 0 0 4.491-3.006 13.795 13.795 0 0 0 4.052-9.784c0-1.875-.372-3.662-1.046-5.291a13.85 13.85 0 0 0-3.006-4.491z"/></g><g><path fill="#f59497" d="M195.32 61.776s7.205-12.414 10.124-17.023c1.28-2.023 3.225-1.452 2.025 1.24-.661 1.485-2.984 5.162-2.984 5.162 3.26.319 4.335 4.267 3.456 5.876-.435.794-3.08 3.056-3.715 3.467-.636.411-3.352 3.9-3.352 3.9z"/></g><g><path fill="#fe6162" d="M200.66 52.675a707.35 707.35 0 0 1 2.214-3.716c.23.024.482.052.758.084 1.169.137 2.02-.24 2.654-.843-.855 1.465-1.795 2.953-1.795 2.953.511.05.968.19 1.373.395-.756.393-2.157.84-4.468 1.111a3.402 3.402 0 0 1-.736.016"/></g><g><path fill="#fe6162" d="M199.53 54.576c.511-.868 1.04-1.76 1.566-2.65a44.63 44.63 0 0 1 3.587-.746c3.103.457 4.117 4.275 3.255 5.85-.268.49-1.38 1.541-2.34 2.37-2.654-.749-4.805-3.113-6.068-4.824"/></g><g><path fill="#f59497" d="M207.293 53.54c1.283.727 2.171 1.43 1.332 3.135-.838 1.707-2.666 1.562-2.635.918.031-.644 1.536-2.954 1.536-2.954s-1.96-1.291-.233-1.1"/></g><g><path fill="#f59497" d="M206.226 52.473c2.042-.4 2.098 1.159 1.16 3.067-.94 1.91-2.375 2.066-2.927 1.222-.552-.844 1.656-3.12 1.656-3.12s-1.822-1.383.11-1.169"/></g><g><path fill="#f59497" d="M206.305 53.91c-.939 1.908-2.264 1.954-2.816 1.11-.553-.844 1.656-3.12 1.656-3.12s-.628-.579-.5-.959c.305-.91 2.344-.972 2.422.727.026.547-.302 1.304-.762 2.241"/></g><g><path fill="#f59497" d="M197.414 59.18c-1.325-3.48.055-8.449 1.546-8.338 1.49.11 6.267-.359 6.432.939.166 1.297-4.941 2.098-4.941 2.098s3.478 4.086 1.325 5.245c-2.153 1.16-4.417 1.215-4.362.055"/></g><g><path fill="#190f5d" d="M156.83 83.581s19.194-1.363 20.062-1.479c.87-.115 1.529-.383 3.418-2.49 1.889-2.107 15.666-20.995 15.666-20.995.469-.75 8.219 4.189 7.037 7.085-.58 1.42-15.174 23.784-15.174 23.784s-2.838 5.04-7.471 7.009c-4.634 1.969-15.406 7.297-15.406 7.297z"/></g><g><path fill="#444c9f" d="M170.26 82.613l3.42-.254c4.277 2.31 9.023 6.86 4.91 14.918-.796.36-1.672.763-2.584 1.19zm6.633-.512c.26-.035.502-.083.764-.191 3.869 2.422 7.496 6.748 4.048 13.908-.427.25-.871.478-1.335.675-.365.155-.767.33-1.2.523 5.192-8.358-.167-12.75-4.309-14.747z"/></g><g><path fill="#190f5d" d="M157.202 83.81c16.599 2.88 16.904 22.088 14.442 38.59-.531 8.174.41 20.686-.492 24.168-.083.318-.366.788-.703 1.268l-19.266.62H129.6c-.337-.479-.62-.949-.703-1.268-.902-3.481.967-21.479.436-29.653L127.79 90.11l17.375-6.3z"/></g><g><path fill="#fe6162" d="M163.33 64.451c.093.012.183.027.273.046h.002a3.712 3.712 0 0 1-.694 7.342 3.71 3.71 0 0 1-2.403-6.595c-.095 1.095.08 2.451 1.478 2.587l-.04-2.14c-.017-.866.79-1.264 1.384-1.24"/></g><g><path fill="#fe6162" d="M138.041 64.451a3.8 3.8 0 0 0-.272.046h-.002a3.712 3.712 0 1 0 4.474 3.703 3.703 3.703 0 0 0-1.377-2.956c.094 1.095-.08 2.451-1.478 2.587l.04-2.14c.017-.866-.79-1.264-1.385-1.24"/></g><g><path fill="#0f0642" d="M165.347 55.57l-1.212 11.065-2.525-10.426z"/></g><g><path fill="#9d9fcf" d="M157.206 83.551c.78-.055 1.046-.136 1.668-.119 1.649 5.787-1.59 10.036-7.687 10.036-4.518 0-8.207-3.69-8.207-8.207v-.658l2.19-.794z"/></g><g><path fill="#5a6dea" d="M190.171 151.398H147.4a2.947 2.947 0 0 1-2.939-2.939 2.948 2.948 0 0 1 2.939-2.939h42.772a2.948 2.948 0 0 1 2.94 2.94 2.948 2.948 0 0 1-2.94 2.938"/></g><g><path fill="#444c9f" d="M147.523 151.398H128.26a2.947 2.947 0 0 1-2.939-2.939 2.948 2.948 0 0 1 2.939-2.939h19.264a2.948 2.948 0 0 1 2.94 2.94 2.947 2.947 0 0 1-2.94 2.938"/></g><g><path fill="#f59497" d="M151.188 71.28c-3.31 0-6.018 2.708-6.018 6.018v7.961c0 3.31 2.708 6.018 6.018 6.018 3.31 0 6.019-2.708 6.019-6.018V77.3c0-3.311-2.708-6.019-6.019-6.019"/></g><g><path fill="#fe6162" d="M145.192 76.782c-.014.17-.022.343-.022.516v7.961c0 .74.136 1.45.383 2.107l11.654-5.21v-4.473c-2.145-.395-7.346-.933-7.65-1.186-.194-.162-2.344.047-4.365.285"/></g><g><path fill="#f59497" d="M164.136 58.423c.002.066.003.134.003.202V70.18c0 6.987-5.718 12.704-12.705 12.704-6.986 0-12.704-5.717-12.704-12.704V58.625c0-1.22.083-2.06.37-3.036 1.37-5.535 6.393-9.669 12.334-9.669 6.92 0 12.593 5.608 12.702 12.503"/></g><g><path fill="#fe6162" d="M164.14 58.419l.001.123-7.744-3.147-3.309 1.933-4.277-1.184c-.426.698-1.186.562-1.186.562l-4.495-1.623.557-6.511a12.769 12.769 0 0 1 2.08-1.312l13.51 1.382c2.907 2.293 4.8 5.823 4.863 9.777"/></g><g><path fill="#0f0642" d="M149.883 70.825a3.287 3.287 0 1 0 6.57.259h-.006a.569.569 0 0 0-.545-.59l-5.424-.214a.57.57 0 0 0-.59.545z"/></g><g><path fill="#ee4861" d="M151.01 73.432a3.273 3.273 0 0 0 2.032.809 3.27 3.27 0 0 0 1.756-.428c-.225-.684-.943-1.218-1.83-1.286-.847-.065-1.605.313-1.958.905"/></g><g><path fill="#fff" d="M155.973 70.501l-5.099-.201c-.103.56.136 1.14.51 1.28.456.168 4.149.218 4.422-.062.131-.136.166-.587.167-1.017"/></g><g><path fill="#fe6162" d="M146.09 68a1.67 1.67 0 1 1 .063 3.341 1.67 1.67 0 0 1-.064-3.34"/></g><g><path fill="#fe6162" d="M159.97 67.72a1.672 1.672 0 1 1 .062 3.343 1.672 1.672 0 0 1-.063-3.343"/></g><g><path fill="#0f0642" d="M160.672 62.243a.451.451 0 0 0 .404-.805c-1.196-.617-2.795-.689-3.967.015a.453.453 0 0 0-.155.619.453.453 0 0 0 .618.155c.95-.57 2.138-.443 3.1.016"/></g><g><path fill="#0f0642" d="M157.935 65.95a1.173 1.173 0 0 1 1.175-1.175 1.173 1.173 0 0 1 1.176 1.175.452.452 0 1 0 .904 0 2.076 2.076 0 0 0-2.08-2.08 2.076 2.076 0 0 0-2.08 2.08.452.452 0 1 0 .905 0"/></g><g><path fill="#f7b9ba" d="M154.862 66.974c.311.428.854 1.209.898 1.498.064.409-.847.644-1.475.472-.446-.123-.377-1.122-.246-1.748.144-.691.332-.898.823-.222"/></g><g><path fill="#0f0642" d="M148.842 62.243a.45.45 0 0 0 .404-.805c-1.196-.617-2.794-.689-3.967.015a.453.453 0 0 0-.156.619.453.453 0 0 0 .62.155c.949-.57 2.138-.443 3.099.016"/></g><g><path fill="#0f0642" d="M146.105 65.95a1.174 1.174 0 0 1 2.007-.832c.22.222.344.52.344.832a.452.452 0 1 0 .904 0 2.076 2.076 0 0 0-2.08-2.08 2.076 2.076 0 0 0-2.08 2.08.452.452 0 1 0 .905 0"/></g><g><path fill="#0f0642" d="M138.733 68.485s2.823-3.207 1.471-7.492c0 0 4.932-2.684 4.932-6.742 0 0 .593 1.405 1.56 1.748.969.343 1.468-.968 1-1.56 0 0 3.59 2.621 6.555 3.214 2.966.593 3.84-2.403 2.622-3.464 0 0 4.776 3.34 7.835 2.528 3.06-.812 4.87-12.736-5.619-15.358-10.488-2.622-17.105.125-19.353 1.623-2.247 1.499-3.683 5.557-2.122 8.303 0 0-1.873 1.81-2.373 4.433-.5 2.622 1.47 9.188 1.47 9.188s2.022.208 2.022 3.579"/></g><g><path fill="#190f5d" d="M165.582 45.797l-.007-.005c-12.823 4.367-19.352-.674-22.257-4.452-.92.293-1.7.617-2.338.93 7.01 11.495 18.484 11.25 26.09 9.455.089-1.893-.313-4.042-1.488-5.928"/></g><g><path fill="#fe6162" d="M143.052 105.28c.461.645.915 1.27 1.46 1.765.546.497 5.445 2.244 5.445 2.244s-.352 1.12-1.44 1.12h-2.82c-.929 0-1.633 3.01-4.996 4.356-2.556 1.022-1.543-6.035-.908-9.485z"/></g><g><path fill="#fff" d="M153.498 88.36h-8.092a1.17 1.17 0 0 0-1.166 1.167v18.758a1.17 1.17 0 0 0 1.166 1.166h8.092a1.17 1.17 0 0 0 1.167-1.166V89.527a1.17 1.17 0 0 0-1.167-1.167"/></g><g><path fill="#d7d7fa" d="M144.24 91.065h10.425v-.405H144.24z"/></g><g><path fill="#d7d7fa" d="M144.24 107.155h10.425v-.405H144.24z"/></g><g><path fill="#fe6162" d="M143.932 94.357s.42.347.467 1.178c.047.833-.517 1.675-.738 2.227l-.813 2.78s-.387 3.866-.455 4c-.03.062.288.48.718.974l-3.245.309c.096-1.105.189-1.848.189-1.848l-.355-1.965s1.072-2.995 1.498-3.936c.424-.941 2.524-3.893 2.734-3.719"/></g><g><path fill="#d7d7fa" d="M149.453 95.546c.96 0 1.743-.783 1.743-1.743 0-.96-.783-1.743-1.743-1.743-.96 0-1.743.783-1.743 1.743 0 .96.783 1.743 1.743 1.743"/></g><g><path fill="#f59497" d="M137.216 122.213s2.242-4.1 2.851-4.965a7.803 7.803 0 0 0 1.441-4.516c0-2.115-.352-3.172.545-3.845.897-.672 2.146-1.025 2.146-1.025s1.858.064 2.226.08c.369.017 2.05.481 2.45.465.401-.016.785-.352.85-.609.063-.256.063-.416-.53-.64-.592-.224-2.161-.77-2.706-.85-.544-.08-2.386-.192-2.803-.192-.416 0-1.537.273-1.537.273l1.457-.689c.273-.128 2.387-.288 2.98-.192.592.096 2.418 1.105 3.651.384 0 0 .272-.216-.056-.56-.328-.345-3.603-1.802-4.02-1.962-.416-.16-.913-.113-1.777-.049-.865.065-1.73.097-2.13.337-.401.24-1.09.608-1.09.608s1.201-2.274 1.361-2.434c.16-.16 2.611-1.201 2.771-1.25.16-.048 1.842-.32 2.307-.688.464-.369.592-.961.592-1.17 0-.207-.064-.352-.945-.272-.88.08-1.906.176-2.61.256-.705.08-2.34.833-3.156 1.154-.816.32-1.505 1.585-2.402 3.186-.897 1.602-2.147 5.03-2.723 6.342-.577 1.314-.192 5.19-2.467 8.2-2.274 3.012-2.882 3.556-2.882 3.556z"/></g><g><path fill="#190f5d" d="M127.797 90.114s-4.082 1.526-6.05 8.707c-1.97 7.182-4.055 32.318-4.518 37.878-.463 5.56 7.703 10.367 12.163 4.981 4.46-5.386 10.425-22.067 10.425-22.067s-1.825-2.723-5.241-3.793l-2.172 2.635s8.34-29.828-4.607-28.341"/></g><g><path fill="#444c9f" d="M120.022 108.879c-.094.73-.188 1.476-.28 2.235 7.68-1.047 12.483 1.377 13.867 2.212.143-.705.288-1.462.428-2.255zm-.812 6.831c6.753-1.045 11.365.59 13.486 1.639.138-.55.317-1.285.513-2.162-2.508-1.14-7.216-2.6-13.747-1.72z"/></g><g><path fill="#d7d7fa" d="M145.479 90.108a.58.58 0 0 0 0-1.158.58.58 0 0 0 0 1.158"/></g><g><path fill="#9d9fcf" d="M146.823 89.886a.354.354 0 0 0 0-.706.354.354 0 0 0 0 .706"/></g><g><path fill="#9d9fcf" d="M145.477 89.954a.428.428 0 1 0 0 0"/></g><g><path fill="#d7d7fa" d="M145.472 89.723a.192.192 0 1 0-.001-.384.192.192 0 0 0 0 .384"/></g><g><path fill="#fff" d="M145.662 89.493a.192.192 0 1 0-.001-.384.192.192 0 0 0 0 .384"/></g><g><path fill="#d7d7fa" d="M146.827 89.705a.178.178 0 1 0-.177-.178c0 .098.08.178.177.178"/></g><g><path fill="#0e0a4c" d="M128.564 142.798a.273.273 0 0 1-.18-.48c.279-.242.546-.517.795-.818 4.167-5.033 9.75-20.252 10.33-21.85-.373-.5-2.052-2.58-4.843-3.518l-2.053 2.491a.274.274 0 0 1-.475-.248c.027-.093 2.618-9.45 2.634-17.302 0-.151.123-.273.273-.273h.001c.152 0 .274.123.273.274-.013 6.255-1.641 13.445-2.34 16.245l1.384-1.68a.275.275 0 0 1 .293-.086c3.468 1.088 5.31 3.788 5.387 3.903.048.072.06.162.03.244-.244.683-6.033 16.788-10.472 22.15a7.56 7.56 0 0 1-.858.881.273.273 0 0 1-.18.067"/></g><g><path fill="#0e0a4c" d="M123.773 129.202a.273.273 0 0 1-.21-.447l9.62-11.675a.274.274 0 0 1 .422.348l-9.62 11.675a.274.274 0 0 1-.212.1"/></g><g><path fill="#0e0a4c" d="M123.834 126.889a.274.274 0 0 1-.11-.525c.924-.404 2.655-1.031 2.728-1.058a.273.273 0 1 1 .186.515c-.017.007-1.787.647-2.695 1.045a.27.27 0 0 1-.109.023"/></g><g><path fill="#0e0a4c" d="M133.963 111.727a.273.273 0 0 1-.257-.367c.02-.053 1.912-5.23 2.082-5.795a.274.274 0 0 1 .34-.183.273.273 0 0 1 .184.34c-.174.58-2.014 5.612-2.091 5.826a.274.274 0 0 1-.258.18"/></g><g><path fill="#0e0a4c" d="M172.886 108.256a.274.274 0 0 1-.273-.265c-.223-7.513-1.831-13.386-4.78-17.457a.274.274 0 1 1 .442-.32c3.016 4.16 4.659 10.136 4.885 17.761a.274.274 0 0 1-.266.281z"/></g><g><path fill="#0e0a4c" d="M176.893 82.37a.273.273 0 0 1-.021-.546c.037-.003 3.71-.295 5.637-.324a.274.274 0 0 1 .008.547c-1.909.028-5.565.32-5.602.323h-.022"/></g><g><path fill="#d7d7fa" d="M205.788 107.08h-48.987c-.706 0-1.348.578-1.429 1.283l-3.484 30.644c-.08.705.432 1.283 1.138 1.283h48.986c.705 0 1.349-.578 1.43-1.283l3.483-30.644c.08-.706-.43-1.283-1.137-1.283"/></g><g><path fill="#fff" d="M209.964 107.08h-51.233c-.706 0-1.348.578-1.429 1.283l-3.484 30.644c-.08.705.432 1.283 1.138 1.283h51.232c.706 0 1.349-.578 1.43-1.283l3.483-30.644c.08-.706-.431-1.283-1.137-1.283"/></g><g><path fill="#9d9fcf" d="M186.318 125.93H176.485c-.637 0-1.029.52-.87 1.158l5.04 20.207c.16.637.81 1.158 1.448 1.158h5.104c.637 0 1.138-.521 1.112-1.158l-.797-20.207a1.218 1.218 0 0 0-1.204-1.158"/></g><g><path fill="#eaecf6" d="M187.808 125.93H177.975c-.637 0-1.029.52-.87 1.158l5.04 20.207c.16.637.81 1.158 1.448 1.158h5.104c.637 0 1.138-.521 1.112-1.158l-.797-20.207a1.218 1.218 0 0 0-1.204-1.158"/></g><g><path fill="#fff" d="M196.524 150.352h-26.063a1.897 1.897 0 0 1-1.891-1.891c0-1.04.851-1.891 1.891-1.891h26.063c1.04 0 1.892.85 1.892 1.89 0 1.041-.851 1.892-1.892 1.892"/></g><g><path fill="#9d9fcf" d="M173.255 150.352h-9.934a1.897 1.897 0 0 1-1.891-1.891c0-1.04.851-1.891 1.891-1.891h9.934c1.04 0 1.891.85 1.891 1.89 0 1.041-.85 1.892-1.891 1.892"/></g><g><path fill="#0f0642" d="M65.84 148.46h196.238a2.348 2.348 0 0 1 2.34 2.34 2.348 2.348 0 0 1-2.34 2.341h-7.897c-.715 0-1.3.585-1.3 1.3 0 .715.585 1.3 1.3 1.3h2.89a1.63 1.63 0 0 1 1.625 1.626 1.63 1.63 0 0 1-1.626 1.625H71.106a1.63 1.63 0 0 1-1.625-1.625 1.63 1.63 0 0 1 1.625-1.626h2.276c.715 0 1.3-.585 1.3-1.3 0-.715-.585-1.3-1.3-1.3H65.84a2.347 2.347 0 0 1-2.34-2.34zm-.341 8.972v-.13c0-.858.702-1.56 1.56-1.56.858 0 1.56.702 1.56 1.56v.13c0 .858-.702 1.56-1.56 1.56z"/></g><g><path fill="#444c9f" d="M235.032 109.17c3.892 0 7.415 1.577 9.965 4.127a14.048 14.048 0 0 1 4.127 9.965c0 3.892-1.577 7.415-4.127 9.965a14.048 14.048 0 0 1-9.965 4.128 14.047 14.047 0 0 1-9.964-4.128 14.047 14.047 0 0 1-4.128-9.965c0-3.891 1.577-7.414 4.128-9.965a14.047 14.047 0 0 1 9.964-4.127"/></g><g><path fill="#fff" d="M235.034 134.039c5.934 0 10.774-4.84 10.774-10.775 0-5.934-4.84-10.774-10.774-10.774-5.934 0-10.774 4.84-10.774 10.774 0 5.934 4.84 10.775 10.774 10.775"/></g><g><path fill="#444c9f" d="M235.034 113.18c.13 0 .235.105.235.234v.57a.234.234 0 0 1-.234.235h-.001a.234.234 0 0 1-.234-.234v-.57c0-.13.105-.235.234-.235"/></g><g><path fill="#444c9f" d="M235.034 132.3c.13 0 .235.105.235.234v.57a.235.235 0 0 1-.234.235h-.001a.235.235 0 0 1-.234-.234v-.571c0-.129.105-.234.234-.234"/></g><g><path fill="#444c9f" d="M240.066 114.532c.112.064.15.208.086.32l-.285.493a.234.234 0 0 1-.32.086.235.235 0 0 1-.086-.32l.286-.494a.234.234 0 0 1 .32-.085"/></g><g><path fill="#444c9f" d="M230.506 131.091h.001c.112.065.15.209.085.32l-.285.494a.234.234 0 0 1-.406-.234l.286-.494a.234.234 0 0 1 .32-.086"/></g><g><path fill="#444c9f" d="M243.76 118.216l.001.001a.234.234 0 0 1-.085.32l-.495.285a.235.235 0 0 1-.32-.085v-.001a.235.235 0 0 1 .086-.32l.495-.285a.234.234 0 0 1 .319.085"/></g><g><path fill="#444c9f" d="M227.201 127.787a.234.234 0 0 1-.085.32l-.495.285a.235.235 0 0 1-.32-.085.235.235 0 0 1 .086-.32l.494-.286a.235.235 0 0 1 .32.086"/></g><g><path fill="#444c9f" d="M245.109 123.264a.235.235 0 0 1-.234.234h-.57a.234.234 0 0 1 0-.468h.57c.129 0 .234.105.234.234"/></g><g><path fill="#444c9f" d="M225.989 123.264a.235.235 0 0 1-.235.234h-.57a.234.234 0 0 1 0-.468h.57c.13 0 .235.105.235.234"/></g><g><path fill="#444c9f" d="M243.761 128.296v.001a.235.235 0 0 1-.32.085l-.494-.285a.235.235 0 0 1-.086-.32.235.235 0 0 1 .32-.086l.495.286c.111.064.15.208.085.32"/></g><g><path fill="#444c9f" d="M227.201 118.736a.235.235 0 0 1-.32.086l-.494-.285a.235.235 0 0 1-.086-.32.235.235 0 0 1 .32-.086l.495.285c.111.065.15.209.085.32"/></g><g><path fill="#444c9f" d="M240.067 131.99v.001a.235.235 0 0 1-.32-.085l-.286-.495a.234.234 0 1 1 .406-.234l.285.494a.235.235 0 0 1-.085.32"/></g><g><path fill="#444c9f" d="M230.507 115.43l-.001.001a.234.234 0 0 1-.32-.085l-.285-.495a.234.234 0 0 1 .406-.234l.285.494a.235.235 0 0 1-.085.32"/></g><g><path fill="#444c9f" d="M235.364 123.256a.331.331 0 1 1-.664 0v-7.774a.332.332 0 0 1 .664 0z"/></g><g><path fill="#ee4861" d="M235.273 123.033a.331.331 0 0 1-.483.453l-3.84-4.118a.331.331 0 0 1 .483-.453z"/></g><g><path fill="#fff" d="M106.578 37.22h20.75a3.157 3.157 0 0 1 3.148 3.148v22.206c0 .145-.083.269-.217.324a.345.345 0 0 1-.383-.076l-5.364-5.364h-17.934a3.157 3.157 0 0 1-3.148-3.148V40.368a3.157 3.157 0 0 1 3.148-3.148"/></g><g><path fill="#9d9fcf" d="M105.182 38.887h20.75c.789 0 1.508.324 2.029.845.521.52.845 1.24.845 2.03v22.205a.081.081 0 0 1-.011.045.09.09 0 0 1-.037.028.078.078 0 0 1-.046.005h-.005a.078.078 0 0 1-.034-.022l-5.364-5.365a.274.274 0 0 0-.194-.08h-17.933c-.79 0-1.509-.323-2.03-.844a2.866 2.866 0 0 1-.845-2.03V41.76c0-.79.324-1.508.845-2.03zm20.75-.547h-20.75a3.41 3.41 0 0 0-2.417 1.005 3.41 3.41 0 0 0-1.005 2.416v13.943c0 .941.385 1.796 1.004 2.416a3.413 3.413 0 0 0 2.417 1.005h17.82l5.285 5.285a.628.628 0 0 0 .306.168l.014.004a.623.623 0 0 0 .36-.038.624.624 0 0 0 .387-.577V41.761a3.41 3.41 0 0 0-1.005-2.416z"/></g><g><path fill="#f59497" d="M122.364 43.146a3.599 3.599 0 0 0-5.074 0l-.345.345-.344-.345a3.599 3.599 0 0 0-5.074 0 3.599 3.599 0 0 0 0 5.075l.344.344 5.074 5.074 5.075-5.074.344-.344a3.599 3.599 0 0 0 0-5.075"/></g><g><path fill="#9d9fcf" d="M252.669 67.819a3.409 3.409 0 0 1 1 2.417c0 .944-.382 1.8-1 2.418a3.405 3.405 0 0 1-2.416 1.002 3.405 3.405 0 0 1-2.416-1.002 3.41 3.41 0 0 1-1.001-2.418c0-.944.383-1.798 1.001-2.417a3.404 3.404 0 0 1 2.416-1.001c.944 0 1.798.382 2.416 1.001zm-.738-3.39a.21.21 0 0 1-.162-.205v-1.831a.392.392 0 0 0-.393-.393h-2.247a.393.393 0 0 0-.393.393v1.831a.21.21 0 0 1-.152.203 6.008 6.008 0 0 0-2.519 1.453.21.21 0 0 1-.254.035l-1.588-.916a.394.394 0 0 0-.537.143l-1.118 1.935-.006.012a.393.393 0 0 0 .144.537l1.574.91a.21.21 0 0 1 .111.238 6.09 6.09 0 0 0-.133 2.193c.03.247.075.488.133.722a.21.21 0 0 1-.1.232l-1.585.916a.393.393 0 0 0-.144.537l1.117 1.935.007.011a.393.393 0 0 0 .538.145l1.577-.91a.21.21 0 0 1 .26.023 6.006 6.006 0 0 0 2.514 1.456.21.21 0 0 1 .161.204v1.832a.392.392 0 0 0 .393.393h2.247a.391.391 0 0 0 .393-.393v-1.832a.21.21 0 0 1 .153-.201 6.005 6.005 0 0 0 2.523-1.459.211.211 0 0 1 .25-.03l1.576.91.012.007c.093.054.2.064.298.038a.391.391 0 0 0 .24-.183l1.123-1.945a.391.391 0 0 0 .038-.3.39.39 0 0 0-.183-.238l-1.574-.91a.21.21 0 0 1-.11-.238 6.095 6.095 0 0 0 0-2.915.21.21 0 0 1 .099-.232l1.575-.909.01-.007a.39.39 0 0 0 .183-.239.391.391 0 0 0-.038-.299l-1.117-1.934-.007-.012a.393.393 0 0 0-.529-.15l-.008.007-1.588.916a.21.21 0 0 1-.25-.03 6.014 6.014 0 0 0-2.514-1.456z"/></g><g><path fill="#5a6dea" d="M89.654 113.951h17.797c.81 0 1.474-.663 1.474-1.474v-13.51c0-.812-.663-1.475-1.474-1.475h-.724v-.686a.407.407 0 0 0-.405-.406h-5.377a.407.407 0 0 0-.406.406v.686H89.654c-.81 0-1.474.663-1.474 1.474v13.511c0 .811.663 1.474 1.474 1.474"/></g><g><path fill="#fff" d="M102.077 113.95H90.83c-.66 0-1.201-.54-1.201-1.2v-11.48c0-.66.54-1.2 1.2-1.2h11.247c.66 0 1.2.54 1.2 1.2v11.48c0 .66-.54 1.2-1.2 1.2"/></g><g><path fill="#9d9fcf" d="M91.426 113.944h16.433c.81 0 1.769-.663 2.13-1.474l5.18-11.628c.36-.81-.007-1.474-.817-1.474h-.864l.325-.73c.132-.296-.003-.538-.299-.538h-5.997c-.296 0-.646.242-.778.538l-.325.73H97.92c-.81 0-1.77.663-2.13 1.474l-5.18 11.628c-.361.81.007 1.474.817 1.474"/></g><g><path fill="#fff" d="M161.876 28.43h33.058c.922 0 1.677.755 1.677 1.676V41.931a.184.184 0 0 1-.116.173.183.183 0 0 1-.204-.04l-2.857-2.857h-31.558a1.68 1.68 0 0 1-1.676-1.676v-7.425c0-.921.755-1.676 1.676-1.676"/></g><g><path fill="#fdbe4a" d="M166.8 37.78c2.093 0 3.8-1.707 3.8-3.8s-1.707-3.8-3.8-3.8a3.808 3.808 0 0 0-3.8 3.8c0 2.093 1.707 3.8 3.8 3.8"/></g><g><path fill="#fff" d="M166.798 33.316a1.04 1.04 0 0 0 1.038-1.038 1.04 1.04 0 0 0-1.038-1.038 1.04 1.04 0 0 0-1.038 1.038 1.04 1.04 0 0 0 1.038 1.038"/></g><g><path fill="#fff" d="M166.792 33.65c.81 0 1.472.662 1.472 1.472V36.558c0 .09-.074.165-.165.165h-2.614a.166.166 0 0 1-.165-.165v-1.436c0-.81.662-1.472 1.472-1.472"/></g><g><path fill="#9d9fcf" d="M176.236 33.63h7.553a.347.347 0 0 1 0 .693h-7.553a.347.347 0 0 1-.346-.346c0-.19.156-.347.346-.347"/></g><g><path fill="#9d9fcf" d="M174.04 33.63h-1.014a.347.347 0 0 0 0 .693h1.014c.19 0 .346-.156.346-.346a.348.348 0 0 0-.346-.347"/></g><g><path fill="#9d9fcf" d="M173.026 31.5h10.768a.347.347 0 0 1 0 .693h-10.768a.347.347 0 0 1 0-.693"/></g><g><path fill="#9d9fcf" d="M173.026 35.76h10.768a.347.347 0 0 1 0 .693h-10.768a.347.347 0 0 1-.346-.347c0-.19.156-.346.346-.346"/></g><g><path fill="#f59497" d="M190.18 37.78c2.093 0 3.8-1.707 3.8-3.8s-1.707-3.8-3.8-3.8a3.807 3.807 0 0 0-3.8 3.8c0 2.093 1.707 3.8 3.8 3.8"/></g><g><path fill="#fff" d="M191.003 33.159a1.166 1.166 0 1 1-1.65 1.65 1.164 1.164 0 0 1 .825-1.992c.322 0 .614.131.825.342zm-.253-1.151a.072.072 0 0 1-.055-.07v-.624a.136.136 0 0 0-.04-.095.135.135 0 0 0-.094-.039h-.766a.134.134 0 0 0-.134.134v.624c0 .031-.02.06-.051.069a2.056 2.056 0 0 0-.859.495.072.072 0 0 1-.086.012l-.541-.313a.135.135 0 0 0-.183.05l-.38.659-.003.004a.134.134 0 0 0 .049.183l.536.31a.07.07 0 0 1 .038.08 2.1 2.1 0 0 0 0 .994.071.071 0 0 1-.033.079l-.541.312a.136.136 0 0 0-.049.183l.38.66.003.003a.136.136 0 0 0 .183.05l.537-.31a.07.07 0 0 1 .089.007 2.055 2.055 0 0 0 .856.496.071.071 0 0 1 .055.07v.624c0 .036.015.07.04.094.024.025.058.04.094.04h.766a.134.134 0 0 0 .134-.134v-.624c0-.032.02-.06.052-.069a2.047 2.047 0 0 0 .86-.497.073.073 0 0 1 .085-.01l.536.31.004.003a.136.136 0 0 0 .183-.05l.383-.663a.133.133 0 0 0 .013-.102.132.132 0 0 0-.062-.081l-.536-.31a.071.071 0 0 1-.038-.081 2.123 2.123 0 0 0 .045-.747 1.978 1.978 0 0 0-.045-.246.071.071 0 0 1 .034-.08l.537-.31.003-.001a.13.13 0 0 0 .062-.082.133.133 0 0 0-.013-.102l-.38-.659-.003-.003a.133.133 0 0 0-.18-.051l-.003.001-.54.313a.071.071 0 0 1-.086-.01 2.08 2.08 0 0 0-.856-.496z"/></g><g><path fill="#fafdff" d="M96.88 147.72h23.126v-2.12H96.88z"/></g><g><path fill="#444c9f" d="M99.738 145.787a.458.458 0 1 0 0-.917H83.402c-.493 0-.94.202-1.265.526l-.002.002a1.787 1.787 0 0 0 0 2.528c.325.327.773.528 1.267.528h16.336a.458.458 0 1 0 0-.916h-.748a2.932 2.932 0 0 1-.36-.313c-.21-.22-.361-.47-.337-.723.028-.291.215-.531.432-.715z"/></g><g><path fill="#5a6dea" d="M120.01 145.787a.458.458 0 0 0 0-.917H99.523c-.493 0-.94.202-1.265.526l-.002.002a1.787 1.787 0 0 0 0 2.528c.325.327.773.528 1.267.528h20.489a.458.458 0 0 0 0-.916H99.52c-.24 0-.459-.1-.617-.258a.868.868 0 0 1-.258-.618.877.877 0 0 1 .876-.875z"/></g><g><path fill="#fafdff" d="M84.11 144.123h19.389v-2.573H84.11z"/></g><g><path fill="#fe6162" d="M100.046 141.772a.556.556 0 1 1 0-1.112h15.056c.597 0 1.14.245 1.534.638l.002.002a2.166 2.166 0 0 1 0 3.068c-.394.395-.938.64-1.536.64h-15.056a.556.556 0 0 1 0-1.112h.908c.152-.113.304-.24.437-.38.256-.265.438-.57.409-.877-.034-.353-.26-.644-.524-.867z"/></g><g><path fill="#d24241" d="M84.116 141.772a.556.556 0 1 1 0-1.112h16.19c.597 0 1.14.245 1.534.638l.002.002c.393.394.638.937.638 1.533 0 .598-.245 1.14-.638 1.535-.394.395-.938.64-1.536.64h-16.19a.556.556 0 0 1 0-1.112h16.19c.291 0 .557-.12.75-.313.193-.191.312-.457.312-.75a1.064 1.064 0 0 0-1.062-1.061z"/></g><g><path fill="#fafdff" d="M98.53 139.753h12.582v-2.633H98.53z"/></g><g><path fill="#0f0642" d="M102.07 137.347a.57.57 0 1 0 0-1.137h-9.276c-.61 0-1.166.25-1.57.653l-.001.002a2.214 2.214 0 0 0 0 3.139 2.21 2.21 0 0 0 1.571.655h9.276a.57.57 0 1 0 0-1.138h-.929a3.531 3.531 0 0 1-.447-.388c-.262-.272-.449-.584-.418-.898.035-.361.266-.66.536-.888z"/></g><g><path fill="#252066" d="M111.113 137.347a.569.569 0 0 0 0-1.137h-9.308c-.611 0-1.167.25-1.57.653l-.002.002a2.214 2.214 0 0 0 0 3.139c.403.404.96.655 1.572.655h9.308a.569.569 0 0 0 0-1.138h-9.308c-.299 0-.57-.123-.767-.32a1.08 1.08 0 0 1-.002-1.535c.198-.196.47-.319.769-.319z"/></g><g><path fill="#f59497" d="M209.06 146.58h15.669c.516 0 .938.422.938.94a.941.941 0 0 1-.938.938h-15.67a.941.941 0 0 1-.939-.939c0-.517.422-.939.94-.939"/></g><g><path fill="#444c9f" d="M209.58 146.58h14.618c.291 0 .53-.239.53-.53a.532.532 0 0 0-.53-.53H209.58a.532.532 0 0 0-.53.53c0 .291.239.53.53.53"/></g><g><path fill="#fe6162" d="M209.617 143.75h14.556a.89.89 0 0 1 .887.887.89.89 0 0 1-.887.887h-14.556a.89.89 0 0 1-.887-.887.89.89 0 0 1 .887-.887"/></g><g><path fill="#fdbe4a" d="M210.165 144.266l1.131-1.131a.427.427 0 0 1 .604 0l1.13 1.131a.427.427 0 0 1 0 .603l-1.13 1.132a.427.427 0 0 1-.604 0l-1.131-1.132a.427.427 0 0 1 0-.603"/></g><g><path fill="#fdbe4a" d="M212.815 144.266l1.131-1.131a.427.427 0 0 1 .603 0l1.132 1.131a.427.427 0 0 1 0 .603l-1.132 1.132a.427.427 0 0 1-.603 0l-1.131-1.132a.427.427 0 0 1 0-.603"/></g><g><path fill="#fdbe4a" d="M215.455 144.266l1.131-1.131a.427.427 0 0 1 .603 0l1.132 1.131a.428.428 0 0 1 0 .603l-1.132 1.132a.427.427 0 0 1-.603 0l-1.131-1.132a.427.427 0 0 1 0-.603"/></g><g><path fill="#fdbe4a" d="M218.104 144.266l1.132-1.131a.427.427 0 0 1 .603 0l1.132 1.131a.428.428 0 0 1 0 .603l-1.132 1.132a.427.427 0 0 1-.603 0l-1.132-1.132a.428.428 0 0 1 0-.603"/></g><g><path fill="#fdbe4a" d="M220.754 144.266l1.132-1.131a.427.427 0 0 1 .603 0l1.132 1.131a.428.428 0 0 1 0 .603l-1.132 1.132a.427.427 0 0 1-.603 0l-1.132-1.132a.428.428 0 0 1 0-.603"/></g><g><path fill="#5a6dea" d="M208.378 143.75h16.984a.45.45 0 0 1 .449.448.45.45 0 0 1-.449.448h-16.984a.45.45 0 0 1 0-.896"/></g><g><path fill="#f59497" d="M226.054 142.455v.033c0 .69-.564 1.255-1.253 1.255H208.98c-1.327 0-1.511-1.067-1.144-2.551.585-2.365 2.731-4.132 5.27-4.132h7.52c2.975 0 5.41 2.424 5.428 5.395"/></g><g><path fill="#fe6162" d="M212.002 137.882a.177.177 0 0 1 0 .25l-.47.47a.177.177 0 0 1-.25-.25l.47-.47a.177.177 0 0 1 .25 0"/></g><g><path fill="#fe6162" d="M214.062 137.882a.177.177 0 0 1 0 .25l-.47.47a.177.177 0 0 1-.25-.25l.47-.47a.178.178 0 0 1 .25 0"/></g><g><path fill="#fe6162" d="M216.122 137.882a.177.177 0 0 1 0 .25l-.47.47a.177.177 0 0 1-.25 0 .178.178 0 0 1 0-.25l.47-.47a.178.178 0 0 1 .25 0"/></g><g><path fill="#fe6162" d="M218.172 137.882a.177.177 0 0 1 0 .25l-.47.47a.177.177 0 0 1-.25 0 .178.178 0 0 1 0-.25l.47-.47a.177.177 0 0 1 .25 0"/></g><g><path fill="#fe6162" d="M220.232 137.882a.178.178 0 0 1 0 .25l-.47.47a.177.177 0 0 1-.25-.25l.47-.47a.177.177 0 0 1 .25 0"/></g><g><path fill="#fe6162" d="M222.292 137.882a.177.177 0 0 1 0 .25l-.47.47a.177.177 0 0 1-.25-.25l.47-.47a.178.178 0 0 1 .25 0"/></g><g><path fill="#fe6162" d="M222.772 139.522a.177.177 0 0 0 0 .25l.47.47a.178.178 0 0 0 .25-.25l-.47-.47a.176.176 0 0 0-.25 0"/></g><g><path fill="#fe6162" d="M220.712 139.522a.177.177 0 0 0 0 .25l.47.47c.069.07.18.07.25 0a.178.178 0 0 0 0-.25l-.47-.47a.177.177 0 0 0-.25 0"/></g><g><path fill="#fe6162" d="M218.652 139.522a.176.176 0 0 0 0 .25l.47.47a.178.178 0 0 0 .25 0 .178.178 0 0 0 0-.25l-.47-.47a.176.176 0 0 0-.25 0"/></g><g><path fill="#fe6162" d="M216.602 139.522a.177.177 0 0 0 0 .25l.47.47a.177.177 0 0 0 .25-.25l-.47-.47a.176.176 0 0 0-.25 0"/></g><g><path fill="#fe6162" d="M214.542 139.522a.177.177 0 0 0 0 .25l.47.47a.177.177 0 0 0 .251-.25l-.47-.47a.176.176 0 0 0-.25 0"/></g><g><path fill="#fe6162" d="M212.482 139.522a.177.177 0 0 0 0 .25l.47.47c.069.07.18.07.25 0a.178.178 0 0 0 0-.25l-.47-.47a.177.177 0 0 0-.25 0"/></g><g><path fill="#9d9fcf" d="M202.402 103.181h18.977a2.358 2.358 0 0 0 2.352-2.352V74.932a2.359 2.359 0 0 0-2.352-2.352h-18.977a2.359 2.359 0 0 0-2.352 2.352v25.897a2.359 2.359 0 0 0 2.352 2.352"/></g><g><path fill="#5a6dea" d="M202.6 74.89h18.586c.237 0 .43.194.43.43v.001a.432.432 0 0 1-.43.431H202.6a.432.432 0 0 1-.431-.43v-.001c0-.237.193-.431.43-.431"/></g><g><path fill="#5a6dea" d="M202.6 77.6h18.586c.237 0 .43.194.43.43v.001a.432.432 0 0 1-.43.432H202.6a.432.432 0 0 1 0-.863"/></g><g><path fill="#5a6dea" d="M217.68 80.58h3.51a.432.432 0 0 1 0 .863h-3.51a.432.432 0 0 1 0-.863"/></g><g><path fill="#5a6dea" d="M217.68 83.64h3.51c.238 0 .431.193.431.43v.001a.432.432 0 0 1-.43.431h-3.51a.432.432 0 0 1-.431-.43v-.001c0-.238.193-.431.43-.431"/></g><g><path fill="#5a6dea" d="M217.68 86.69h3.51c.238 0 .431.194.431.43v.002c0 .237-.193.43-.43.43h-3.51a.432.432 0 0 1-.431-.43v-.001c0-.237.193-.431.43-.431"/></g><g><path fill="#5a6dea" d="M217.68 89.75h3.51a.432.432 0 0 1 0 .863h-3.51a.432.432 0 0 1 0-.863"/></g><g><path fill="#5a6dea" d="M217.68 92.81h3.51c.238 0 .431.194.431.43v.001a.432.432 0 0 1-.43.431h-3.51a.432.432 0 0 1-.431-.43v-.001c0-.237.193-.431.43-.431"/></g><g><path fill="#5a6dea" d="M217.68 95.87h3.51c.238 0 .431.194.431.43v.001a.432.432 0 0 1-.43.432h-3.51a.432.432 0 0 1 0-.863"/></g><g><path fill="#5a6dea" d="M212.28 98.93h8.902c.237 0 .431.194.431.431a.432.432 0 0 1-.43.432h-8.902a.432.432 0 0 1 0-.863"/></g><g><path fill="#5a6dea" d="M213.17 95.87h2.628c.238 0 .432.194.432.43v.001a.432.432 0 0 1-.432.432h-2.627a.432.432 0 0 1 0-.863"/></g><g><path fill="#5a6dea" d="M214.34 92.81h1.325c.237 0 .43.194.43.43v.001a.432.432 0 0 1-.43.431h-1.324a.432.432 0 0 1-.431-.43v-.001c0-.237.194-.431.43-.431"/></g><g><path fill="#5a6dea" d="M215.27 89.75h.97a.432.432 0 0 1 0 .863h-.97a.432.432 0 0 1 0-.863"/></g><g><path fill="#fff" d="M202.17 83.38h1.666v15.578a.836.836 0 0 1-.833.832.835.835 0 0 1-.833-.832V85.545z"/></g><g><path fill="#fff" d="M203.836 90.904v8.053a.836.836 0 0 1-.833.832.835.835 0 0 1-.833-.832v-8.053c0 .207.169.375.375.375h.916c.206 0 .375-.58.375-.375"/></g><g><path fill="#d7d7fa" d="M202.826 80.204c-.047.1-.656 2.593-.656 3.171.272.66 1.353.484 1.666 0 0-.578-.609-3.072-.655-3.17a.195.195 0 0 0-.355 0"/></g><g><path fill="#444c9f" d="M202.82 80.204c-.014.03-.083.291-.17.654a.822.822 0 0 0 .696 0 10.19 10.19 0 0 0-.17-.654.195.195 0 0 0-.355 0"/></g><g><path fill="#d7d7fa" d="M203.46 98.085h-.915a.376.376 0 0 1-.375-.375v.791c0 .206.168.375.375.375h.916a.376.376 0 0 0 .375-.375v-.791c0 .206-.169.375-.375.375"/></g><g><path fill="#fff" d="M212.03 83.5c.38.38.614.906.614 1.485a2.095 2.095 0 0 1-2.1 2.1c-.579 0-1.104-.235-1.484-.615a2.092 2.092 0 0 1-.615-1.485c0-.58.235-1.104.615-1.485a2.096 2.096 0 0 1 2.97 0zm-.447-2.084a.13.13 0 0 1-.1-.126v-1.128a.24.24 0 0 0-.07-.17.24.24 0 0 0-.171-.072h-1.385a.24.24 0 0 0-.17.071.24.24 0 0 0-.072.17v1.129a.13.13 0 0 1-.093.124 3.699 3.699 0 0 0-1.552.896.13.13 0 0 1-.157.021l-.978-.564a.242.242 0 0 0-.184-.024.238.238 0 0 0-.147.113l-.688 1.191-.004.008a.24.24 0 0 0-.023.183c.015.06.054.115.111.148l.97.56a.128.128 0 0 1 .068.146 3.845 3.845 0 0 0-.109.898 3.787 3.787 0 0 0 .11.898.129.129 0 0 1-.062.143l-.977.564a.237.237 0 0 0-.111.147.24.24 0 0 0 .023.184l.688 1.192.004.007a.24.24 0 0 0 .147.112.24.24 0 0 0 .184-.023l.972-.56a.13.13 0 0 1 .16.014 3.692 3.692 0 0 0 1.549.897.13.13 0 0 1 .1.126v1.128a.242.242 0 0 0 .241.242h1.385a.242.242 0 0 0 .242-.242V88.69a.13.13 0 0 1 .094-.125 3.738 3.738 0 0 0 1.554-.898.13.13 0 0 1 .153-.019l.972.56.007.005a.243.243 0 0 0 .331-.089l.692-1.198a.245.245 0 0 0-.089-.332l-.97-.56a.13.13 0 0 1-.068-.147 3.723 3.723 0 0 0 0-1.796.129.129 0 0 1 .061-.143l.97-.56.007-.003a.243.243 0 0 0 .09-.332l-.689-1.192-.004-.006a.239.239 0 0 0-.147-.113.242.242 0 0 0-.179.02l-.005.004-.978.564a.13.13 0 0 1-.154-.018 3.706 3.706 0 0 0-1.549-.897z"/></g><g><path fill="#fff" d="M208.96 93.649a1.3 1.3 0 0 1 .381.922 1.299 1.299 0 0 1-1.3 1.304c-.36 0-.686-.146-.921-.382a1.3 1.3 0 0 1 .92-2.226c.36 0 .685.146.92.382zm-.28-1.294a.08.08 0 0 1-.062-.078v-.698a.15.15 0 0 0-.15-.149h-.856a.15.15 0 0 0-.15.15v.697a.08.08 0 0 1-.058.077 2.3 2.3 0 0 0-.96.554.08.08 0 0 1-.097.013l-.604-.349a.151.151 0 0 0-.205.055l-.426.737-.002.004a.15.15 0 0 0 .054.205l.6.346a.08.08 0 0 1 .043.091 2.268 2.268 0 0 0-.05.837c.01.093.027.185.05.274a.08.08 0 0 1-.038.089l-.605.348a.15.15 0 0 0-.054.205l.425.738.003.004a.15.15 0 0 0 .091.07c.037.01.078.005.114-.015l.6-.347a.08.08 0 0 1 .1.009 2.324 2.324 0 0 0 .958.554.08.08 0 0 1 .061.078v.698a.15.15 0 0 0 .15.15h.856a.15.15 0 0 0 .15-.15v-.698a.08.08 0 0 1 .058-.077 2.27 2.27 0 0 0 .961-.555.08.08 0 0 1 .095-.012l.6.347.005.002a.15.15 0 0 0 .205-.055l.428-.74a.15.15 0 0 0-.055-.206l-.6-.346a.08.08 0 0 1-.042-.09 2.402 2.402 0 0 0 .068-.556 2.33 2.33 0 0 0-.068-.556.08.08 0 0 1 .038-.088l.6-.346.004-.003a.15.15 0 0 0 .055-.205l-.425-.737-.003-.004a.151.151 0 0 0-.2-.057l-.005.002-.605.35a.08.08 0 0 1-.095-.012 2.302 2.302 0 0 0-.958-.555z"/></g><g><path fill="#fff" d="M113.99 68.64h7.185c.466 0 .848.382.848.85v7.185c0 .467-.382.849-.848.849h-7.186a.851.851 0 0 1-.849-.85V69.49c0-.467.382-.849.85-.849"/></g><g><path fill="#fff" d="M113.99 80.53h7.185c.466 0 .848.382.848.85v7.185c0 .467-.382.849-.848.849h-7.186a.851.851 0 0 1-.849-.85V81.38c0-.467.382-.849.85-.849"/></g><g><path fill="#9d9fcf" d="M112.863 67.35h7.185c.31 0 .59.126.794.33l.015.017c.195.203.314.477.314.777v7.185a1.12 1.12 0 0 1-1.123 1.123h-7.185a1.12 1.12 0 0 1-.793-.33l-.016-.018a1.12 1.12 0 0 1-.314-.775v-7.185c0-.31.127-.59.33-.794zm7.176.548h-7.177a.572.572 0 0 0-.405.17.567.567 0 0 0-.17.405v7.176c0 .152.06.291.157.394l.013.012a.573.573 0 0 0 .405.168h7.177a.573.573 0 0 0 .575-.575v-7.175a.572.572 0 0 0-.157-.394l-.012-.012z"/></g><g><path fill="#9d9fcf" d="M112.863 79.24h7.185c.31 0 .59.126.794.33l.015.017c.195.203.314.477.314.776v7.185c0 .309-.126.59-.33.793-.203.204-.483.33-.793.33h-7.185c-.309 0-.59-.126-.793-.33l-.016-.017a1.122 1.122 0 0 1-.314-.776v-7.185c0-.308.127-.589.33-.793zm7.176.548h-7.177a.572.572 0 0 0-.405.169.567.567 0 0 0-.17.405v7.177c0 .153.06.292.157.394l.013.012a.573.573 0 0 0 .405.169h7.177a.572.572 0 0 0 .406-.169.57.57 0 0 0 .169-.406v-7.177a.57.57 0 0 0-.157-.393l-.012-.012z"/></g><g><path fill="#f59497" d="M113.863 82.084a.477.477 0 1 1 .668-.68l1.911 1.88 1.88-1.911a.477.477 0 0 1 .68.667l-1.88 1.913 1.912 1.88a.477.477 0 0 1-.668.68l-1.912-1.88-1.88 1.91a.477.477 0 0 1-.68-.667l1.88-1.913z"/></g><g><path fill="#fdbe4a" d="M114.136 72.593a.477.477 0 0 1 .662-.688l.999.96 2.282-2.602a.476.476 0 0 1 .718.627l-2.627 2.996a.478.478 0 0 1-.675.013z"/></g><g><path fill="#9d9fcf" d="M102.75 64.177h-1.503a.66.66 0 0 1-.657-.657v-1.503c0-.362.296-.657.657-.657h1.503c.362 0 .657.295.657.657v1.503a.66.66 0 0 1-.657.657"/></g><g><path fill="#9d9fcf" d="M97.53 64.177h-1.503a.66.66 0 0 1-.657-.657v-1.503c0-.362.296-.657.657-.657h1.503c.362 0 .658.295.658.657v1.503a.659.659 0 0 1-.658.657"/></g><g><path fill="#9d9fcf" d="M92.32 64.177h-1.503a.66.66 0 0 1-.657-.657v-1.503c0-.362.296-.657.657-.657h1.504c.361 0 .657.295.657.657v1.503a.66.66 0 0 1-.657.657"/></g><g><path fill="#9d9fcf" d="M87.111 64.177h-1.503a.66.66 0 0 1-.658-.657v-1.503a.66.66 0 0 1 .658-.657h1.503c.361 0 .657.295.657.657v1.503a.66.66 0 0 1-.657.657"/></g><g><path fill="#9d9fcf" d="M81.9 64.177h-1.503a.659.659 0 0 1-.657-.657v-1.503c0-.362.295-.657.657-.657H81.9c.362 0 .657.295.657.657v1.503a.66.66 0 0 1-.657.657"/></g><g><path fill="#9d9fcf" d="M76.68 64.177h-1.503a.66.66 0 0 1-.657-.657v-1.503c0-.362.296-.657.657-.657h1.503c.362 0 .657.295.657.657v1.503a.659.659 0 0 1-.657.657"/></g><g><path fill="#9d9fcf" d="M92.13 58.498h-1.503a.66.66 0 0 1-.657-.658v-1.503a.66.66 0 0 1 .657-.657h1.504a.66.66 0 0 1 .657.657v1.503a.66.66 0 0 1-.657.658"/></g><g><path fill="#9d9fcf" d="M86.92 58.498h-1.503a.659.659 0 0 1-.657-.658v-1.503c0-.361.295-.657.657-.657h1.503a.66.66 0 0 1 .658.657v1.503a.66.66 0 0 1-.658.658"/></g><g><path fill="#9d9fcf" d="M81.71 58.498h-1.503a.66.66 0 0 1-.657-.658v-1.503a.66.66 0 0 1 .657-.657h1.503c.362 0 .658.296.658.657v1.503a.659.659 0 0 1-.658.658"/></g><g><path fill="#9d9fcf" d="M87.11 70.278h-1.503a.659.659 0 0 1-.657-.658v-1.503c0-.362.295-.657.657-.657h1.503c.362 0 .658.295.658.657v1.503a.66.66 0 0 1-.658.658"/></g><g><path fill="#9d9fcf" d="M81.9 70.278h-1.503a.659.659 0 0 1-.657-.658v-1.503c0-.362.295-.657.657-.657H81.9c.362 0 .657.295.657.657v1.503a.66.66 0 0 1-.657.658"/></g><g><path fill="#9d9fcf" d="M194.85 53.057h-1.503a.659.659 0 0 1-.657-.657v-1.503c0-.362.295-.657.657-.657h1.503c.362 0 .658.295.658.657V52.4a.66.66 0 0 1-.658.657"/></g><g><path fill="#9d9fcf" d="M189.64 53.057h-1.503a.66.66 0 0 1-.657-.657v-1.503c0-.362.296-.657.657-.657h1.504c.361 0 .657.295.657.657V52.4a.659.659 0 0 1-.657.657"/></g><g><path fill="#9d9fcf" d="M184.43 53.057h-1.502a.66.66 0 0 1-.658-.657v-1.503a.66.66 0 0 1 .658-.657h1.503a.66.66 0 0 1 .657.657V52.4a.66.66 0 0 1-.657.657"/></g><g><path fill="#9d9fcf" d="M179.22 53.057h-1.503a.66.66 0 0 1-.657-.657v-1.503c0-.362.296-.657.657-.657h1.503c.362 0 .658.295.658.657V52.4a.66.66 0 0 1-.658.657"/></g><g><path fill="#9d9fcf" d="M174 53.057h-1.502a.66.66 0 0 1-.658-.657v-1.503c0-.362.296-.657.658-.657H174c.361 0 .657.295.657.657V52.4a.66.66 0 0 1-.657.657"/></g><g><path fill="#9d9fcf" d="M189.45 47.378h-1.503a.659.659 0 0 1-.657-.658v-1.503a.66.66 0 0 1 .657-.657h1.503c.362 0 .658.296.658.657v1.503a.659.659 0 0 1-.658.658"/></g><g><path fill="#9d9fcf" d="M184.24 47.378h-1.503a.659.659 0 0 1-.657-.658v-1.503a.66.66 0 0 1 .657-.657h1.504a.66.66 0 0 1 .657.657v1.503a.659.659 0 0 1-.657.658"/></g><g><path fill="#9d9fcf" d="M179.03 47.378h-1.502a.66.66 0 0 1-.658-.658v-1.503a.66.66 0 0 1 .658-.657h1.503a.66.66 0 0 1 .657.657v1.503a.659.659 0 0 1-.657.658"/></g><g><path fill="#9d9fcf" d="M184.43 59.157h-1.503a.659.659 0 0 1-.657-.657v-1.503c0-.362.296-.657.657-.657h1.503c.362 0 .658.295.658.657V58.5a.659.659 0 0 1-.658.657"/></g><g><path fill="#9d9fcf" d="M179.22 59.157h-1.503a.659.659 0 0 1-.657-.657v-1.503c0-.362.296-.657.657-.657h1.503c.362 0 .658.295.658.657V58.5a.659.659 0 0 1-.658.657"/></g><g><path fill="#fff" d="M90.488 36.749a.409.409 0 1 1 .817 0v1.837a.409.409 0 0 1-.817 0zm-2.785 1.492a.409.409 0 0 1 .578-.578l1.3 1.3a.408.408 0 1 1-.579.577zm-.914 3.014a.406.406 0 0 1-.409-.404c0-.222.183-.403.409-.403h1.837c.226 0 .41.18.41.403a.406.406 0 0 1-.41.404zm1.492 2.795a.408.408 0 1 1-.578-.578l1.3-1.3a.409.409 0 0 1 .577.579zm3.024.906a.408.408 0 0 1-.817 0v-1.831a.408.408 0 0 1 .817 0zm2.785-1.484a.409.409 0 1 1-.578.578l-1.3-1.3a.409.409 0 0 1 .579-.578zm.906-3.024c.225 0 .407.18.407.403a.405.405 0 0 1-.407.404h-1.831a.405.405 0 0 1-.407-.404c0-.222.182-.403.407-.403zm-1.484-2.785a.409.409 0 0 1 .578.578l-1.3 1.299a.409.409 0 0 1-.578-.577z"/></g><g><path fill="#fff" d="M105.318 124.29c0 .226.18.408.403.408a.405.405 0 0 0 .404-.407v-1.833a.406.406 0 0 0-.404-.408.406.406 0 0 0-.403.408zm-1.485.955a.41.41 0 0 0 .577 0 .406.406 0 0 0 0-.576l-1.3-1.295a.41.41 0 0 0-.577 0 .406.406 0 0 0 0 .576zm-.377 1.726a.406.406 0 0 0 .409-.404.406.406 0 0 0-.409-.404h-1.838a.406.406 0 0 0-.408.404c0 .223.183.404.408.404zm.954 1.494a.406.406 0 0 0 0-.576.41.41 0 0 0-.577 0l-1.3 1.294a.409.409 0 0 0 .578.576zm1.715.376a.405.405 0 0 0-.404-.406.405.405 0 0 0-.403.406v1.826c0 .224.18.406.403.406a.405.405 0 0 0 .404-.406zm1.496-.952a.41.41 0 0 0-.579 0 .406.406 0 0 0 0 .576l1.3 1.294a.409.409 0 0 0 .578-.576zm.375-1.726a.406.406 0 0 0-.408.404c0 .223.183.404.408.404h1.838a.406.406 0 0 0 .408-.404.406.406 0 0 0-.408-.404zm-.954-1.494a.406.406 0 0 0 0 .576.41.41 0 0 0 .579 0l1.299-1.295a.406.406 0 0 0 0-.576.41.41 0 0 0-.578 0z"/></g><g><path fill="#fff" d="M232.268 71.946a.408.408 0 1 0 .817 0v-1.838a.409.409 0 0 0-.817 0zm-1.485.954a.409.409 0 0 0 .578-.578l-1.3-1.3a.408.408 0 1 0-.578.579zm-.376 1.715a.407.407 0 0 0 .408-.404.407.407 0 0 0-.408-.404h-1.838a.407.407 0 0 0-.409.404c0 .223.183.404.409.404zm.954 1.495a.408.408 0 1 0-.578-.578l-1.3 1.3a.408.408 0 1 0 .578.578zm1.724.376a.409.409 0 0 0-.817 0v1.838a.408.408 0 1 0 .817 0zm1.486-.954a.409.409 0 0 0-.579.578l1.3 1.3a.409.409 0 0 0 .578-.578zm.376-1.725a.406.406 0 0 0-.409.404c0 .223.183.404.409.404h1.837a.406.406 0 0 0 .41-.404.406.406 0 0 0-.41-.404zm-.955-1.485a.409.409 0 0 0 .578.578l1.3-1.3a.408.408 0 1 0-.578-.577z"/></g><g><path fill="#fff" d="M74.402 101.313v.662h.663a.505.505 0 0 1 0 1.007h-.663v.662a.504.504 0 0 1-.503.504.504.504 0 0 1-.503-.504v-.662h-.662a.505.505 0 0 1-.504-.503c0-.277.227-.504.504-.504h.662v-.662c0-.277.226-.503.503-.503s.503.226.503.503"/></g><g><path fill="#fff" d="M130.002 77.213v.663h.663a.504.504 0 0 1 0 1.006h-.663v.663a.504.504 0 0 1-1.006 0v-.663h-.663a.505.505 0 0 1-.503-.503c0-.277.227-.503.503-.503h.663v-.663c0-.276.226-.503.503-.503s.503.227.503.503"/></g><g><path fill="#fff" d="M137.828 31.267v.747h.747c.312 0 .567.254.567.567a.568.568 0 0 1-.567.566h-.747v.747a.569.569 0 0 1-.567.567.569.569 0 0 1-.567-.567v-.747h-.747a.568.568 0 0 1-.567-.566c0-.313.255-.567.567-.567h.747v-.747a.568.568 0 0 1 1.134 0"/></g><g><path fill="#fff" d="M234.668 100.767v.747h.746c.312 0 .567.255.567.567a.569.569 0 0 1-.567.567h-.746v.746a.569.569 0 0 1-.567.568.569.569 0 0 1-.568-.568v-.746h-.746a.568.568 0 0 1-.567-.567c0-.312.255-.567.567-.567h.746v-.747a.569.569 0 0 1 1.134 0"/></g><g><path fill="#fff" d="M214.738 124.857v.747h.747c.312 0 .567.255.567.567a.569.569 0 0 1-.567.567h-.747v.747a.569.569 0 0 1-.567.567.568.568 0 0 1-.567-.567v-.747h-.747a.569.569 0 0 1-.567-.567c0-.312.255-.567.567-.567h.747v-.747c0-.312.255-.567.567-.567.312 0 .567.255.567.567"/></g></g><g><g><path fill="none" stroke="#1d262d" stroke-miterlimit="20" stroke-width=".59" d="M264.94 39.257l15.097-15.097"/></g><g><path fill="none" stroke="#1d262d" stroke-miterlimit="20" stroke-width=".59" d="M268.67 39.257l15.097-15.097"/></g><g><path fill="none" stroke="#8bd2bd" stroke-miterlimit="20" stroke-width=".59" d="M272.4 39.257l15.097-15.097"/></g><g><path fill="none" stroke="#ffe031" stroke-miterlimit="20" stroke-width=".59" d="M276.13 39.257l15.097-15.097"/></g></g></g></g></g></svg>