<svg width="21" height="21" viewBox="0 0 21 21" fill="none" xmlns="http://www.w3.org/2000/svg">
<path fill-rule="evenodd" clip-rule="evenodd" d="M2.57029 0.257566C2.79858 -0.0752759 3.35377 -0.0752759 3.58206 0.257566C4.01104 0.878789 6.15234 4.05291 6.15234 5.5291C6.15234 6.53013 5.66455 7.4125 4.92188 7.97457V19.1463C4.92188 20.164 4.09393 20.992 3.07617 20.992C2.05841 20.992 1.23047 20.164 1.23047 19.1463V7.97457C0.487799 7.4125 0 6.53013 0 5.5291C0 4.05291 2.1413 0.878789 2.57029 0.257566ZM13.002 4.9959C10.4821 4.9959 8.08008 6.20655 6.57686 8.2349C6.47112 8.37731 6.43145 8.55814 6.46993 8.73176C6.50717 8.90481 6.61775 9.0532 6.77156 9.13913C7.95871 9.7976 8.69531 11.0389 8.69531 12.3787C8.69531 13.9336 7.71237 15.3275 6.25 15.8472C6.08057 15.9073 5.94718 16.0371 5.8823 16.2035C5.81741 16.3705 5.82824 16.5568 5.91113 16.7148C7.30743 19.353 10.0243 20.992 13.002 20.992C17.412 20.992 21 17.4039 21 12.9939C21 8.58394 17.412 4.9959 13.002 4.9959ZM13.002 19.7615C10.7032 19.7615 8.58715 18.6068 7.33626 16.7082C8.9104 15.8628 9.92578 14.204 9.92578 12.3787C9.92578 10.8358 9.19517 9.39146 7.97914 8.46258C9.25526 7.05185 11.0878 6.22636 13.002 6.22636C16.733 6.22636 19.7695 9.2623 19.7695 12.9939C19.7695 16.7256 16.733 19.7615 13.002 19.7615ZM3.69141 19.1463C3.69141 19.4857 3.41504 19.7615 3.07617 19.7615C2.7373 19.7615 2.46094 19.4857 2.46094 19.1463V8.54301C2.65982 8.58357 2.86543 8.60527 3.07617 8.60527C3.28691 8.60527 3.49252 8.58357 3.69141 8.54301V19.1463ZM1.23047 5.5291C1.23047 6.54686 2.05841 7.3748 3.07617 7.3748C4.09393 7.3748 4.92188 6.54686 4.92188 5.5291C4.92188 4.85616 3.96178 3.10298 3.07617 1.71932C2.19056 3.1036 1.23047 4.85739 1.23047 5.5291ZM13.002 14.8396C11.9842 14.8396 11.1562 15.6676 11.1562 16.6853C11.1562 17.7031 11.9842 18.5311 13.002 18.5311C14.0197 18.5311 14.8477 17.7031 14.8477 16.6853C14.8477 15.6676 14.0197 14.8396 13.002 14.8396ZM12.3867 16.6853C12.3867 17.0248 12.6631 17.3006 13.002 17.3006C13.3408 17.3006 13.6172 17.0248 13.6172 16.6853C13.6172 16.3459 13.3408 16.0701 13.002 16.0701C12.6631 16.0701 12.3867 16.3459 12.3867 16.6853ZM16.6934 11.1482C15.6756 11.1482 14.8477 11.9762 14.8477 12.9939C14.8477 14.0117 15.6756 14.8396 16.6934 14.8396C17.7111 14.8396 18.5391 14.0117 18.5391 12.9939C18.5391 11.9762 17.7111 11.1482 16.6934 11.1482ZM16.0781 12.9939C16.0781 13.3334 16.3545 13.6092 16.6934 13.6092C17.0322 13.6092 17.3086 13.3334 17.3086 12.9939C17.3086 12.6545 17.0322 12.3787 16.6934 12.3787C16.3545 12.3787 16.0781 12.6545 16.0781 12.9939ZM13.002 11.1482C14.0197 11.1482 14.8477 10.3203 14.8477 9.30254C14.8477 8.28477 14.0197 7.45683 13.002 7.45683C11.9842 7.45683 11.1562 8.28477 11.1562 9.30254C11.1562 10.3203 11.9842 11.1482 13.002 11.1482ZM13.6172 9.30254C13.6172 8.96309 13.3408 8.6873 13.002 8.6873C12.6631 8.6873 12.3867 8.96309 12.3867 9.30254C12.3867 9.64198 12.6631 9.91777 13.002 9.91777C13.3408 9.91777 13.6172 9.64198 13.6172 9.30254Z" fill="url(#paint0_linear)"/>
<defs>
<linearGradient id="paint0_linear" x1="20.982" y1="20.956" x2="20.982" y2="0.00792458" gradientUnits="userSpaceOnUse">
<stop stop-color="#F11F23"/>
<stop offset="1" stop-color="#FF8183"/>
</linearGradient>
</defs>
</svg>
