<svg width="56" height="48" viewBox="0 0 56 48" fill="none" xmlns="http://www.w3.org/2000/svg">
<rect width="56" height="48" fill="white"/>
<path fill-rule="evenodd" clip-rule="evenodd" d="M23.7437 31.6903C23.7437 31.6903 28.4724 31.8366 28.4724 27.3536C28.4724 27.3536 28.6785 23.7065 25.6854 23.7073C25.6854 23.7073 27.956 23.5401 27.956 20.9123C27.956 18.2837 26.0983 17 23.7437 17H19.4125H19.2855H16V31.6903H19.2855H19.4125H23.7437ZM37.7172 17.8649H31.5771V19.6744H37.7172V17.8649ZM32.2465 27.1124H39.9601C39.9601 27.1124 39.9603 27.1107 39.9607 27.1074C39.9841 26.9076 40.7072 20.7363 34.7811 20.7363C29.0572 20.7363 29.0629 26.3809 29.0629 26.3809C29.0629 26.3809 28.6703 31.9958 34.7811 31.9958C34.7811 31.9958 39.8746 32.2844 39.8746 28.0899H37.2529C37.2529 28.0899 37.3393 29.6702 34.8666 29.6702C34.8666 29.6702 32.2465 29.8423 32.2465 27.1124ZM34.8365 22.8882C32.5389 22.8882 32.218 25.1502 32.218 25.1502H37.1063C37.1063 25.1518 37.1365 22.8882 34.8365 22.8882ZM24.7968 21.1374C24.7968 19.6101 23.7437 19.6101 23.7437 19.6101H23.1858H19.4117H19.4101V22.8882H23.475C24.1778 22.8882 24.7968 22.6671 24.7968 21.1374ZM19.4125 25.1518H23.7437C23.7437 25.1518 25.314 25.1325 25.314 27.1711C25.314 28.8905 24.142 29.0641 23.5255 29.0794C23.4447 29.0817 23.3733 29.0808 23.3153 29.08C23.2908 29.0797 23.2687 29.0794 23.2494 29.0794H19.4125V25.1518Z" fill="black"/>
</svg>
