<svg width="23" height="21" viewBox="0 0 23 21" fill="none" xmlns="http://www.w3.org/2000/svg">
<path fill-rule="evenodd" clip-rule="evenodd" d="M21.7437 0H0.65625C0.293519 0 0 0.293519 0 0.65625V20.3438C0 20.7065 0.293519 21 0.65625 21H21.7437C22.1065 21 22.4 20.7065 22.4 20.3438V0.65625C22.4 0.293519 22.1065 0 21.7437 0ZM21.0875 19.6875H1.3125V5.25H21.0875V19.6875ZM1.3125 3.9375H21.0875V1.3125H9.23125V1.96875C9.23125 2.33148 8.93773 2.625 8.575 2.625C8.21227 2.625 7.91875 2.33148 7.91875 1.96875V1.3125H6.60625V1.96875C6.60625 2.33148 6.31273 2.625 5.95 2.625C5.58727 2.625 5.29375 2.33148 5.29375 1.96875V1.3125H3.98125V1.96875C3.98125 2.33148 3.68773 2.625 3.325 2.625C2.96227 2.625 2.66875 2.33148 2.66875 1.96875V1.3125H1.3125V3.9375ZM3.325 11.8125H19.075C19.4377 11.8125 19.7313 11.519 19.7313 11.1562V7.21875C19.7313 6.85602 19.4377 6.5625 19.075 6.5625H3.325C2.96227 6.5625 2.66875 6.85602 2.66875 7.21875V11.1562C2.66875 11.519 2.96227 11.8125 3.325 11.8125ZM18.4188 7.875H3.98125V10.5H18.4188V7.875ZM9.8875 18.375C10.2502 18.375 10.5437 18.0815 10.5437 17.7188V13.7812C10.5437 13.4185 10.2502 13.125 9.8875 13.125H3.325C2.96227 13.125 2.66875 13.4185 2.66875 13.7812V17.7188C2.66875 18.0815 2.96227 18.375 3.325 18.375H9.8875ZM9.23125 17.0625V14.4375H3.98125V17.0625H9.23125ZM19.075 13.125H12.5125C12.1498 13.125 11.8562 13.4185 11.8562 13.7812V17.7188C11.8562 18.0815 12.1498 18.375 12.5125 18.375H19.075C19.4377 18.375 19.7313 18.0815 19.7313 17.7188V13.7812C19.7313 13.4185 19.4377 13.125 19.075 13.125ZM13.1687 17.0625H18.4188V14.4375H13.1687V17.0625Z" fill="url(#paint0_linear)"/>
<defs>
<linearGradient id="paint0_linear" x1="22.3808" y1="20.964" x2="22.3808" y2="-9.99641e-06" gradientUnits="userSpaceOnUse">
<stop stop-color="#F11F23"/>
<stop offset="1" stop-color="#FF8183"/>
</linearGradient>
</defs>
</svg>
