<svg width="80" height="80" viewBox="0 0 80 80" fill="none" xmlns="http://www.w3.org/2000/svg">
<path d="M55.4839 44.8555V37.7252L52.0968 36.7987C51.9858 36.5032 51.8632 36.2077 51.7277 35.9148L53.4697 32.8619L50.4232 29.8155H50.3084C50.2348 31.1755 49.12 32.2581 47.7419 32.2581C47.7419 34.4258 46.849 36.3819 45.4142 37.7871H45.418C46.0722 38.7961 46.4516 39.9987 46.4516 41.2903C46.4516 44.8529 43.5626 47.7419 40 47.7419C36.4374 47.7419 33.5484 44.8529 33.5484 41.2903C33.5484 39.9987 33.9277 38.7961 34.5819 37.7871H34.5871C33.151 36.3819 32.258 34.4258 32.258 32.2581C30.8813 32.2581 29.7651 31.1768 29.6916 29.8168H29.5755L26.529 32.8619L28.271 35.9148C28.1368 36.2077 28.0129 36.5019 27.9019 36.7987L24.5161 37.7252V44.8555L27.9032 45.7807C28.0142 46.0774 28.138 46.3716 28.2722 46.6645L26.5303 49.7174L31.5729 54.76L34.6258 53.0181C34.9187 53.1523 35.2129 53.2761 35.5097 53.3871L36.4348 56.7742H43.5651L44.4903 53.3871C44.7871 53.2761 45.0813 53.1523 45.3742 53.0181L48.4271 54.76L53.4697 49.7174L51.7277 46.6645C51.8619 46.3716 51.9858 46.0774 52.0968 45.7807L55.4839 44.8555Z" fill="#FD3034"/>
<path fill-rule="evenodd" clip-rule="evenodd" d="M73.4877 52.2606C75.1032 50.84 76.129 48.7664 76.129 46.4516C76.129 42.1819 72.6567 38.7097 68.3871 38.7097C64.1174 38.7097 60.6451 42.1819 60.6451 46.4516C60.6451 49.3458 62.2438 51.8709 64.6025 53.1987C62.0438 54.84 60.2516 57.609 59.9871 60.8103L59.4671 67.0968H52.9032C50.769 67.0968 49.0322 68.8335 49.0322 70.9677C49.0322 73.1019 50.769 74.8387 52.9032 74.8387H58.0645V80H80V61.6374C80 57.3471 77.2864 53.6877 73.4877 52.2606ZM68.3871 41.2903C71.2335 41.2903 73.5484 43.6051 73.5484 46.4516C73.5484 49.298 71.2335 51.6129 68.3871 51.6129C65.5406 51.6129 63.2258 49.298 63.2258 46.4516C63.2258 43.6051 65.5406 41.2903 68.3871 41.2903ZM60.6451 77.4193H77.4193V61.6374C77.4193 57.5329 74.08 54.1935 69.9755 54.1935C66.1329 54.1935 62.8761 57.1935 62.5587 61.0232L62.0374 67.32C61.9148 68.6684 60.8103 69.6774 59.4671 69.6774H52.9032C52.1922 69.6774 51.6129 70.2568 51.6129 70.9677C51.6129 71.6787 52.1922 72.258 52.9032 72.258H61.0929C63.1084 72.258 64.7651 70.7445 64.9471 68.738L65.8103 59.2387L68.3806 59.4722L67.5174 68.9716C67.2142 72.3161 64.4529 74.8387 61.0929 74.8387H60.6451V77.4193Z" fill="black"/>
<path fill-rule="evenodd" clip-rule="evenodd" d="M27.0968 67.0968L20.5342 67.1071L20.0129 60.8103C19.7471 57.609 17.9548 54.84 15.3974 53.1987C17.7561 51.8709 19.3548 49.3458 19.3548 46.4516C19.3548 42.1819 15.8826 38.7097 11.6129 38.7097C7.34323 38.7097 3.87097 42.1819 3.87097 46.4516C3.87097 48.7664 4.89677 50.84 6.51226 52.2606C2.71355 53.6877 0 57.3471 0 61.6374V80H21.9355V74.8387H27.0968C29.231 74.8387 30.9677 73.1019 30.9677 70.9677C30.9677 68.8335 29.231 67.0968 27.0968 67.0968ZM11.6129 41.2903C14.4594 41.2903 16.7742 43.6051 16.7742 46.4516C16.7742 49.298 14.4594 51.6129 11.6129 51.6129C8.76645 51.6129 6.45161 49.298 6.45161 46.4516C6.45161 43.6051 8.76645 41.2903 11.6129 41.2903ZM18.9071 72.258H27.0968C27.8077 72.258 28.3871 71.6787 28.3871 70.9677C28.3871 70.2568 27.8077 69.6774 27.0968 69.6774H20.5329C19.1897 69.6774 18.0852 68.6684 17.9639 67.3303L17.4426 61.0232C17.1252 57.1935 13.8671 54.1935 10.0245 54.1935C5.92 54.1935 2.58065 57.5329 2.58065 61.6374V77.4193H19.3548V74.8387H18.9071C15.5471 74.8387 12.7858 72.3161 12.4826 68.9716L11.6194 59.4722L14.1897 59.2387L15.0529 68.738C15.2348 70.7445 16.8916 72.258 18.9071 72.258Z" fill="black"/>
<path fill-rule="evenodd" clip-rule="evenodd" d="M48.9626 33.3329C50.4968 32.8181 51.613 31.3832 51.613 29.6774C51.613 28.2142 50.7871 26.9523 49.5859 26.2955L52.7355 19.9961C53.4401 18.5845 53.8955 17.049 54.0878 15.4839H56.0439L60.6452 23.1535L64.902 16.0568C65.1149 15.7032 65.5033 15.4839 65.9149 15.4839C66.5665 15.4839 67.0968 16.0142 67.0968 16.6658V25.8065H69.6775V16.6658C69.6775 14.591 67.9897 12.9032 65.9149 12.9032C64.6001 12.9032 63.3652 13.6026 62.6891 14.7303L60.6452 18.1368L57.5046 12.9032H54.1471C53.6736 5.71097 47.6865 0 40.3768 0H39.6233C32.3136 0 26.3265 5.71097 25.853 12.9032H22.4955L19.3549 18.1368L17.311 14.7303C16.6349 13.6026 15.3988 12.9032 14.0852 12.9032C12.0104 12.9032 10.3226 14.591 10.3226 16.6658V25.8065H12.9033V16.6658C12.9033 16.0142 13.4336 15.4839 14.0852 15.4839C14.4981 15.4839 14.8865 15.7032 15.0981 16.0581L19.3549 23.1535L23.9562 15.4839H25.9123C26.1046 17.0503 26.5601 18.5858 27.2646 19.9961L30.4142 26.2955C29.213 26.9523 28.3871 28.2142 28.3871 29.6774C28.3871 31.3832 29.5033 32.8181 31.0375 33.3329C31.2452 35.08 31.9497 36.6761 33.0104 37.9716C32.5201 39.0039 32.2581 40.1329 32.2581 41.2903C32.2581 45.56 35.7304 49.0323 40.0001 49.0323C44.2697 49.0323 47.742 45.56 47.742 41.2903C47.742 40.1316 47.48 39.0039 46.9884 37.9716C48.0504 36.6748 48.7536 35.0787 48.9626 33.3329ZM46.3213 33.5484C45.7213 36.489 43.1162 38.7097 40.0001 38.7097C36.8839 38.7097 34.2788 36.489 33.6788 33.5484H46.3213ZM32.2581 30.9677H47.742C48.453 30.9677 49.0323 30.3884 49.0323 29.6774C49.0323 28.9665 48.453 28.3871 47.742 28.3871H32.2581C31.5471 28.3871 30.9678 28.9665 30.9678 29.6774C30.9678 30.3884 31.5471 30.9677 32.2581 30.9677ZM28.3871 13.8168C28.3871 7.62065 33.4271 2.58065 39.6233 2.58065H40.3768C46.573 2.58065 51.613 7.62065 51.613 13.8168C51.613 15.5523 51.2026 17.289 50.4271 18.8426L46.9446 25.8065H41.2904V18.0645H38.7097V25.8065H33.0555L29.573 18.8426C28.7975 17.289 28.3871 15.5523 28.3871 13.8168ZM34.8388 41.2903C34.8388 44.1368 37.1536 46.4516 40 46.4516C42.8465 46.4516 45.1613 44.1368 45.1613 41.2903C45.1613 40.7832 45.0865 40.2852 44.9433 39.8077C43.5226 40.7419 41.8246 41.2903 40 41.2903C38.1755 41.2903 36.4775 40.7419 35.0555 39.8077C34.9136 40.2852 34.8388 40.7832 34.8388 41.2903Z" fill="black"/>
<path d="M67.0968 33.5484H69.6774V36.129H67.0968V33.5484Z" fill="black"/>
<path d="M67.0968 28.3871H69.6774V30.9677H67.0968V28.3871Z" fill="black"/>
<path d="M10.3226 33.5484H12.9033V36.129H10.3226V33.5484Z" fill="black"/>
<path d="M10.3226 28.3871H12.9033V30.9677H10.3226V28.3871Z" fill="black"/>
<path d="M40 19.3549C37.1536 19.3549 34.8387 17.04 34.8387 14.1936C34.8387 11.3471 37.1536 9.03229 40 9.03229C42.8465 9.03229 45.1613 11.3471 45.1613 14.1936C45.1613 17.04 42.8465 19.3549 40 19.3549Z" fill="#FD3034"/>
</svg>
