<svg width="80" height="80" viewBox="0 0 80 80" fill="none" xmlns="http://www.w3.org/2000/svg">
<path fill-rule="evenodd" clip-rule="evenodd" d="M72.6715 3.42754C73.4115 2.89592 74.3113 2.5743 75.2894 2.5743C77.7734 2.5743 79.794 4.59484 79.794 7.07808V47.6186C79.794 50.5505 78.3318 53.3111 75.9329 54.9919V79.7938H54.054V59.5775C52.0937 60.1824 50.0732 60.4886 48.0242 60.4886C40.8699 60.4886 35.6756 57.2738 32.5764 54.5775C31.431 53.5813 30.8183 52.1375 30.8942 50.6162C30.9702 49.0848 31.7334 47.6948 32.987 46.8081C34.8529 45.4889 37.3794 45.6202 39.1259 47.1389C40.9251 48.6986 43.9291 50.5597 48.0242 50.5597C53.2018 50.5597 56.6729 46.7838 57.9148 45.1762V32.0448C56.6729 30.4373 53.2018 26.66 48.0242 26.66C43.9302 26.66 40.9264 28.5211 39.1259 30.0835C37.3807 31.5984 34.8556 31.7346 32.987 30.4129C31.7334 29.5265 30.9715 28.1365 30.8942 26.6048C30.8183 25.0838 31.431 23.6397 32.5764 22.6435C35.6742 19.9459 40.8699 16.7311 48.0242 16.7311C51.4953 16.7311 54.8118 17.5832 57.9148 19.2678V4.50484C57.9148 2.02078 59.9356 0.000244141 62.4194 0.000244141C64.0334 0.000244141 65.4413 0.861325 66.2364 2.14051C66.9764 1.60889 67.8761 1.28727 68.8542 1.28727C70.4683 1.28727 71.8761 2.14835 72.6715 3.42754ZM73.9986 53.1778C75.9856 52.0219 77.2199 49.8921 77.2199 47.6192V7.07862C77.2199 6.0143 76.3537 5.14808 75.2894 5.14808C74.2251 5.14808 73.3588 6.0143 73.3588 7.07862V30.8884H70.7848V7.07889V5.79187C70.7848 4.72754 69.9186 3.86133 68.8542 3.86133C67.7899 3.86133 66.9237 4.72754 66.9237 5.79187V30.8884H64.3497V5.79187V4.50484C64.3497 3.44051 63.4834 2.5743 62.4191 2.5743C61.3548 2.5743 60.4886 3.44051 60.4886 4.50484V23.9951L58.477 22.6232C55.2453 20.4213 51.7294 19.3054 48.024 19.3054C41.6661 19.3054 37.0329 22.1754 34.2659 24.5821C33.7202 25.0584 33.428 25.7481 33.464 26.474C33.5013 27.2127 33.868 27.8832 34.4729 28.3105C35.371 28.9451 36.5899 28.8743 37.438 28.1381C39.5694 26.2886 43.1369 24.0854 48.0237 24.0854C54.8151 24.0854 59.0945 29.2732 60.2437 30.8627L60.4883 31.2V46.0211L60.2437 46.3557C59.0945 47.9462 54.8153 53.1316 48.0237 53.1316C43.1342 53.1316 39.568 50.9294 37.438 49.0813C36.5888 48.3427 35.3686 48.2719 34.4729 48.9075C33.868 49.3348 33.5013 50.0054 33.464 50.744C33.428 51.4711 33.7202 52.1597 34.2659 52.6359C37.0318 55.0451 41.6661 57.9151 48.024 57.9151C50.3613 57.9151 52.6586 57.4594 54.8529 56.5586L56.6278 55.8302V77.2202H73.3588V53.5497L73.9986 53.1778Z" fill="#333333"/>
<path d="M27.027 54.0543H19.3681L20.157 52.2513C20.4465 51.5924 20.5922 50.9 20.5922 50.1935C20.5922 47.3543 18.2832 45.0454 15.4441 45.0454C12.6049 45.0454 10.2959 47.3543 10.2959 50.1935C10.2959 50.9 10.4414 51.5924 10.7311 52.2513L11.52 54.0543H3.86108C1.73243 54.0543 0 52.3219 0 50.1932V42.5343L1.80297 43.3232C2.46189 43.6127 3.15432 43.7584 3.86081 43.7584C6.7 43.7584 9.00892 41.4494 9.00892 38.6103C9.00892 35.7711 6.7 33.4622 3.86081 33.4622C3.15432 33.4622 2.46189 33.6076 1.80297 33.8973L0 34.6862V27.0273C0 24.8986 1.73243 23.1662 3.86108 23.1662H7.83135C7.75811 22.7427 7.72189 22.313 7.72189 21.8792C7.72189 17.6205 11.1851 14.1573 15.4438 14.1573C19.7024 14.1573 23.1657 17.6205 23.1657 21.8792C23.1657 22.313 23.1297 22.7427 23.0562 23.1662H27.027C29.1557 23.1662 30.8881 24.8986 30.8881 27.0273V30.9976C31.3116 30.9243 31.7414 30.8881 32.1751 30.8881C36.4338 30.8881 39.897 34.3513 39.897 38.61C39.897 42.8686 36.4338 46.3319 32.1751 46.3319C31.7414 46.3319 31.3116 46.2959 30.8881 46.2224V50.1927C30.8881 52.3219 29.1557 54.0543 27.027 54.0543Z" fill="#FD3034"/>
</svg>
